<svg width="48" height="38" viewBox="0 0 48 38" fill="none" xmlns="http://www.w3.org/2000/svg">
<path d="M34.1764 24.3637C34.7781 24.8504 35.662 24.6116 36.0741 23.9865C36.5348 23.287 36.1275 22.2261 35.248 22.1336C35.1654 22.1251 35.096 22.0876 35.0438 22.0344C34.63 22.029 34.2373 22.1493 33.9289 22.5078C33.4495 23.0664 33.6293 23.9212 34.1764 24.3637ZM32.9281 22.379C33.4427 21.3223 34.9746 20.6748 36.0191 21.3507C36.1249 21.419 36.1822 21.5151 36.2051 21.6161C36.9901 21.9734 37.4697 22.9443 37.2352 23.8529C36.9021 25.146 35.4237 26.0177 34.162 25.464C33.036 24.9701 32.3727 23.5204 32.9281 22.379Z" fill="#8DD9E5"/>
<path d="M2.2866 30.287C3.05316 32.5449 4.44421 34.5236 5.37037 36.7127C5.41813 36.6662 5.47193 36.622 5.53843 36.584C7.25411 35.5943 9.12457 34.908 11.0434 34.4329C10.2375 33.0757 10.0078 31.4225 10.7206 29.6884C11.7338 27.2238 15.7549 23.5579 18.3079 26.1755L18.4031 26.3146C20.1723 26.5915 21.6993 27.8235 22.4986 29.4232C23.8456 28.9443 25.1662 28.4111 26.4647 27.8127C27.4833 27.3423 28.4975 26.6628 29.5935 26.4071C29.2097 25.7639 28.9311 25.0523 28.8019 24.2894C28.2368 20.9547 30.6892 17.5784 34.0607 17.235C34.2839 17.2126 34.4499 17.2888 34.5653 17.4139C36.7748 17.2689 39.0985 18.3703 40.4892 20.1459C42.4952 19.4458 44.5629 18.8739 46.6085 18.3081C46.7263 18.2748 46.8257 18.2869 46.9159 18.3141C42.9867 12.944 37.1854 5.58186 30.0719 10.9085C29.5047 11.3335 28.9344 10.5161 29.2657 10.0029C25.8907 4.53116 20.2963 0.142804 13.4821 1.99572C5.15212 4.26033 3.46364 14.0376 7.34177 20.8205C7.50681 21.1101 7.48988 21.3809 7.37019 21.5925C7.48203 21.9474 7.32787 22.3772 6.85995 22.3252C2.0738 21.7902 1.05999 26.6731 2.2866 30.287ZM17.5296 36.2338C19.8065 36.0071 21.7396 33.9519 21.593 31.5946C21.4369 29.0815 19.2615 27.6259 17.0268 27.1264C16.9288 27.104 16.8629 27.0575 16.8129 27.0014C14.3635 26.531 11.8263 29.4582 11.7513 31.7477C11.6582 34.6041 14.9856 36.486 17.5296 36.2338ZM35.5081 28.246C38.1719 28.0134 40.7789 25.5051 40.1059 22.723C39.5235 20.3163 36.8858 18.7101 34.4296 18.5462C34.375 18.5837 34.3207 18.6218 34.2515 18.6442C32.0653 19.3334 30.0974 21.0049 30.1362 23.4992C30.1792 26.2711 32.8252 28.4812 35.5081 28.246ZM0.182194 25.5765C0.742603 22.9824 2.88268 20.8338 5.43747 20.8846C1.25405 13.9179 3.95452 3.75796 11.8166 0.835611C19.1061 -1.87394 27.1208 2.29134 30.0708 9.21394C32.509 7.2516 36.1416 7.30299 38.9695 8.4631C43.1232 10.1667 45.8278 14.2062 47.9255 17.9743C48.2006 18.4701 47.6551 18.8594 47.2494 18.6581C47.3256 18.9186 47.231 19.2397 46.8994 19.363C45.0306 20.0624 43.1423 20.7649 41.2323 21.3568C41.3327 21.572 41.425 21.7926 41.4985 22.0199C42.6357 25.5541 39.4704 29.0229 36.1064 29.5574C33.7537 29.9321 31.4017 28.8512 30.003 27.0171C29.132 27.9681 27.7409 28.5436 26.601 29.0985C25.4085 29.6795 24.1871 30.194 22.9504 30.6734C23.0803 31.2319 23.1277 31.8124 23.0673 32.398C22.6897 36.0376 19.151 38.3438 15.6739 37.6074C14.2172 37.299 12.8975 36.5719 11.926 35.5773C9.95823 36.1473 8.12888 36.9587 6.31042 37.9047C5.83284 38.1534 5.38971 37.8788 5.22769 37.4998C4.87705 37.8268 4.19876 37.8776 3.91282 37.3758C1.93657 33.907 -0.722805 29.76 0.182194 25.5765Z" fill="#8DD9E5"/>
<path d="M16.371 32.5909C16.836 32.7126 17.401 32.5789 17.6559 32.1425C18.0436 31.4773 17.4839 30.5983 16.7087 30.6982C16.605 30.7122 16.5379 30.6502 16.508 30.57C16.1152 30.6951 15.7884 30.961 15.6512 31.4054C15.4786 31.9646 15.8297 32.4488 16.371 32.5909ZM14.5458 31.4144C14.7169 30.229 16.0463 29.0303 17.2769 29.5326C17.5031 29.6251 17.616 29.8547 17.6079 30.0651C18.3797 30.1914 18.9811 30.9545 18.9004 31.8721C18.7868 33.1567 17.6346 33.9011 16.4078 33.7003C15.2888 33.5176 14.3747 32.6025 14.5458 31.4144Z" fill="#8DD9E5"/>
<path d="M19.813 14.0376C21.6046 13.5666 23.3368 12.9536 25.0699 12.3025C25.0264 12.2415 24.9876 12.1726 24.9612 12.0891C23.8341 8.58462 20.4082 5.47547 16.5696 5.68464C17.7672 8.41716 18.908 11.1968 19.813 14.0376ZM15.46 4.28694C20.3258 4.20653 25.038 6.73231 26.3649 11.7016C26.4393 11.9791 26.3628 12.2058 26.2143 12.3618C26.2321 12.502 26.1868 12.6508 26.0475 12.7354C24.0046 13.9838 21.7867 14.8543 19.5248 15.616C19.1248 15.7509 18.7704 15.457 18.6329 15.11C17.3558 11.8824 16.1722 8.62875 14.7986 5.43858C14.5743 4.91807 14.8282 4.29721 15.46 4.28694Z" fill="#8DD9E5"/>
<path d="M14.7891 15.9921C14.9668 15.6717 14.2051 14.0575 14.1053 13.7226C13.4397 11.4828 12.7245 9.23329 12.2179 6.94752C8.95704 9.95753 8.61911 13.6948 9.46486 17.8692C10.6117 17.4913 11.7627 17.1232 12.9023 16.7229C13.2735 16.593 14.5914 16.3487 14.7891 15.9921ZM12.0317 5.70217L12.0384 5.70036C12.1714 5.42952 12.5746 5.29531 12.727 5.64111C13.5062 7.41302 14.1029 9.2617 14.7074 11.0989C15.1669 12.4948 16.3594 14.6337 16.2496 16.0592C16.1903 16.8306 16.038 16.9805 15.3797 17.3746C13.7142 18.3721 11.2386 18.75 9.40803 19.3521C8.97155 19.4954 8.66445 19.2143 8.58102 18.8685C8.48369 18.8177 8.3918 18.7464 8.32046 18.6291C5.71368 14.3489 8.20439 8.28296 12.0317 5.70217Z" fill="#8DD9E5"/>
</svg>
