<svg width="30" height="48" viewBox="0 0 30 48" fill="none" xmlns="http://www.w3.org/2000/svg">
<path d="M27.3659 30.1748C26.6161 29.9823 25.853 29.8245 25.0864 29.6819C25.2899 28.2251 25.4028 26.7557 25.462 25.3176C26.2628 25.4568 27.0621 25.5987 27.8614 25.7492L27.9834 25.7612C27.8022 27.2373 27.5952 28.7081 27.3659 30.1748ZM26.5952 34.6565L26.5443 34.6371C25.7122 34.5019 24.8725 34.406 24.03 34.3274C24.3917 33.247 24.669 32.1306 24.8767 30.9968C25.6195 31.224 26.3659 31.4365 27.1199 31.611C26.9513 32.6268 26.7861 33.644 26.5952 34.6565ZM23.9791 46.063C20.9275 45.4308 17.8591 44.8979 14.7629 44.5036C13.1126 44.2931 11.4562 44.1266 9.79759 43.9887C9.97739 41.4075 10.2861 38.0576 13.3217 37.2123C17.4361 36.0666 17.2626 41.6733 17.1399 43.9347C17.0967 44.7427 18.2584 44.7807 18.5232 44.1139C19.7741 40.9652 18.1392 35.1907 13.7789 35.5943C9.41362 36 8.45332 40.4263 8.74113 43.8968C8.19756 43.8581 7.47211 43.8848 6.69997 43.9108C5.23513 43.9607 3.60373 44.0107 2.72776 43.619C2.049 43.8195 1.81276 43.5824 2.01904 42.9076C1.97165 42.46 1.96817 42.0117 2.0058 41.5634C2.01555 40.7028 2.07479 39.8402 2.10894 38.9802C2.18559 37.0431 2.26434 35.1061 2.33961 33.1684C2.34727 32.9599 2.35632 32.7507 2.36468 32.5415C4.0804 32.9645 7.14947 33.8684 8.10489 32.2118C8.74253 31.1061 8.80246 29.4594 8.9042 28.0486C9.26519 27.8528 9.29445 27.3339 8.99548 27.0801L9.01083 26.9449C9.20108 25.6007 9.44847 24.2544 9.58645 22.9022C13.482 23.4604 17.3776 24.008 21.264 24.6228L21.2188 24.7007C20.1637 27.9114 19.8557 31.4391 19.6473 34.783C19.6208 35.2047 20.0236 35.4891 20.4187 35.5204C22.3881 35.6763 24.3861 35.8988 26.3631 35.8908C25.6906 39.3039 24.8962 42.6944 23.9791 46.063ZM2.53402 27.9953C3.06435 28.0173 3.59468 28.0366 4.125 28.0553C4.12012 29.3575 4.19259 30.6624 4.36333 31.972C3.69433 31.9174 2.99605 31.8122 2.39604 31.7782C2.44831 30.5179 2.49639 29.2569 2.53402 27.9953ZM4.65185 22.1688C4.38006 23.7808 4.20305 25.3922 4.14382 27.0075C3.61558 27.0255 3.08805 27.0455 2.56121 27.0668C2.59954 25.3256 2.59814 23.5843 2.50406 21.8451C3.21906 21.9583 3.93615 22.0603 4.65185 22.1688ZM7.35714 28.1265C7.34111 28.2484 7.32716 28.371 7.31113 28.4922C7.15712 29.6433 7.3843 31.5364 5.98567 31.9087C5.76615 31.9667 5.51667 31.9927 5.25394 32.0013C5.22189 30.6931 5.22817 29.3908 5.28113 28.0926C5.97383 28.1119 6.66583 28.1219 7.35714 28.1265ZM5.33826 26.9695C5.43652 25.4275 5.60656 23.8901 5.87765 22.3527C6.61564 22.4626 7.35364 22.5792 8.09233 22.6857C7.83309 24.0886 7.67281 25.5181 7.50487 26.9362C6.7836 26.9402 6.06093 26.9502 5.33826 26.9695ZM21.2501 34.1076C21.3595 32.7107 21.531 31.3232 21.7108 29.9371C22.2543 30.1302 22.8021 30.3201 23.3512 30.5059C23.2237 31.7509 23.1094 32.9965 23.039 34.2428C22.4425 34.1955 21.8459 34.1509 21.2501 34.1076ZM23.462 29.4015C22.9115 29.3142 22.3602 29.231 21.8104 29.1524C21.9986 27.7189 22.1888 26.2854 22.3254 24.8439L22.3198 24.7887C22.8488 24.8746 23.377 24.9645 23.9052 25.0531L23.8627 25.2017C23.7596 26.6025 23.6097 28.002 23.462 29.4015ZM17.4375 3.24326C21.0564 9.98099 24.4216 16.8346 27.5053 23.8135C21.5791 22.6837 15.5545 21.6693 9.5077 21.1091C9.27633 20.8899 8.87284 20.8519 8.60454 21.0291C6.67767 20.8659 4.75011 20.7454 2.82254 20.6901C8.68887 15.8701 13.3698 9.52603 17.4375 3.24326ZM29.913 23.9054C26.4419 15.96 22.6418 8.16317 18.4919 0.520197C18.0953 -0.210528 16.9803 -0.135255 16.5636 0.520197C12.0213 7.66426 6.4038 13.9091 1.28731 20.6441C0.713781 20.6421 0.554199 21.5347 1.15142 21.6326L1.19253 21.6386C0.581366 26.0942 0.540957 30.6198 0.366737 35.1061C0.282415 37.259 0.198782 39.4105 0.115156 41.5634C0.0817063 42.4386 -0.277179 44.0933 0.471269 44.87C0.929119 45.3456 1.46781 45.2983 2.05737 45.4102C3.33544 45.6533 4.7501 45.6473 6.14595 45.642C7.03796 45.6386 7.9223 45.6353 8.75855 45.6959C14.0353 46.0829 19.2501 46.8736 24.4126 47.976C24.9018 48.0806 25.4279 47.8375 25.5624 47.3519C27.5841 40.0633 29.0245 32.6721 29.9074 25.1797C29.9283 25.0085 29.8991 24.8666 29.8405 24.7474C30.0064 24.5342 30.0629 24.2484 29.913 23.9054Z" fill="#FFD787"/>
</svg>
