<svg width="121" height="104" viewBox="0 0 121 104" fill="none" xmlns="http://www.w3.org/2000/svg">
<path d="M113.557 58.7487C111.847 62.8454 107.613 63.8055 103.772 62.6112C103.705 62.4455 103.639 62.279 103.558 62.1179C103.078 61.1638 101.314 61.4685 101.618 62.6468C102.407 65.701 102.147 68.9839 99.3663 70.9762C96.324 73.1558 92.2645 71.7512 90.1075 69.0701C89.8769 68.7839 89.593 68.7148 89.3334 68.763C89.1444 68.7518 88.9527 68.8169 88.834 68.9826C87.8325 70.3884 87.093 71.6887 85.2796 72.1391C83.3221 72.626 81.4559 71.7037 80.4991 69.9598C78.2814 65.9208 81.4829 62.3289 85.429 61.6498C86.2049 61.5158 86.2211 60.3796 85.4235 60.2588L85.2502 60.2466C81.907 57.9947 77.0711 55.0784 80.4096 50.4983C83.4821 46.2826 88.6419 48.0893 91.967 50.8512C92.7519 51.5034 93.9563 50.305 93.2284 49.5476C93.0995 49.4117 92.9569 49.2883 92.8194 49.1589C93.2431 49.2602 93.7706 49.0621 93.7864 48.5512C93.9282 43.9747 97.5427 39.7786 102.414 40.5213C107.208 41.2522 109.118 46.3166 106.694 50.1293C106.296 50.258 106.107 50.6014 106.126 50.9566C105.571 52.0153 107.149 53.0496 108.023 52.0725L108.078 52.0026C109.29 52.1733 110.522 52.3183 111.645 52.7945C114.151 53.8561 114.522 56.4348 113.557 58.7487ZM61.0062 43.534C53.5366 46.5588 49.333 54.7741 51.4351 62.5094C49.5527 62.3478 47.6103 62.651 45.8163 63.3753C43.8491 53.204 46.4296 42.7977 56.4177 37.9367C66.0662 33.2398 77.4646 37.1129 82.909 46.1942C81.2865 46.5999 79.7902 47.5 78.6295 49.0362C75.6945 42.7304 67.39 40.9491 61.0062 43.534ZM56.9543 68.2501C60.3193 72.9896 56.6364 78.6375 51.3876 78.3305C51.1552 78.1251 50.9087 77.9315 50.6368 77.7629C49.8146 77.2532 48.5922 78.2572 49.3638 79.0771C51.4605 81.3053 52.4375 84.9066 49.9693 87.3247C47.3258 89.9135 42.8522 88.5331 40.9905 85.7134C40.8688 85.5296 40.6811 85.5302 40.5395 85.6218C40.161 85.4213 39.6631 85.4944 39.4726 86.0032C37.8886 90.2179 36.4003 94.9867 30.7926 94.8787C23.1795 94.7309 27.1642 85.5164 28.8029 81.6901C29.354 81.116 28.6844 80.2433 27.9365 80.4702C25.5379 81.1996 19.627 83.7286 19.2077 79.1234C18.8427 75.127 23.4331 74.0353 26.5761 74.0706C26.7267 74.1659 26.8718 74.2682 27.0342 74.3489C27.831 74.7473 28.6974 73.5981 28.0828 72.9422C24.9702 69.6184 25.9823 65.9267 30.3098 64.2022C34.2734 62.6227 39.4519 63.7172 39.8283 68.718C39.8945 69.5943 41.2265 69.5578 41.3384 68.7165C41.352 68.6097 41.3577 68.5091 41.3668 68.4052C41.6429 68.5233 41.9662 68.5176 42.2503 68.2808C46.5628 64.6776 53.1007 62.8202 56.9543 68.2501ZM32.8674 37.8675C36.8653 29.4469 44.023 23.0141 52.7152 19.7333C70.534 13.0093 90.3436 21.6262 98.4607 38.7019C95.7147 39.7159 93.6512 42.15 92.766 45.1227C88.7203 30.8847 73.2324 21.9658 58.7688 25.6388C45.2952 29.0603 28.1133 47.2265 37.6545 61.7469C38.212 62.5948 39.5468 61.7528 39.1607 60.8522C32.9339 46.3439 46.7018 30.6695 60.4776 27.8078C74.0701 24.9839 87.9323 34.1468 90.9006 47.69C89.2796 46.6922 87.4204 46.0662 85.5819 45.9564C85.5626 45.8103 85.5147 45.6571 85.4221 45.4972C79.4671 35.2756 67.0971 30.5836 56.1273 35.5411C45.8675 40.1783 39.5574 53.0978 44.6236 63.7758L44.704 63.8846C43.4376 64.5499 42.2765 65.443 41.308 66.5575C40.4606 61.6975 34.1296 60.3889 29.7147 62.0284C29.2624 53.5042 29.0988 45.8056 32.8674 37.8675ZM109.352 50.0179C111.352 45.5846 108.897 40.007 103.95 38.576C102.969 38.292 102.023 38.1763 101.12 38.1984C101.097 38.1117 101.067 38.0234 101.024 37.933C92.3815 19.709 71.5037 10.5487 52.4206 17.2919C43.258 20.5294 35.6292 27.1612 31.1838 35.8136C27.2033 43.5616 25.0142 54.1963 28.2685 62.5833L28.3212 62.6695C25.9978 63.914 24.0658 65.8167 23.9247 68.6117C23.8491 70.1048 24.2751 71.587 25.1351 72.7429C21.0342 72.7978 16.469 74.7251 17.2552 79.6711C17.9222 83.8623 22.1734 84.3965 25.6496 83.3241C22.8146 87.9249 23.0249 95.577 28.8161 97.0614C34.0539 98.4052 41.1645 93.2798 41.1494 87.6425C43.3147 90.7661 48.1063 91.6426 51.1442 89.0456C53.5223 87.0126 54.164 83.1464 52.8425 80.3061C58.2919 80.446 62.3097 73.4685 59.8969 68.3076C58.4899 65.2996 56.0003 63.4992 53.203 62.7996C52.2274 56.6533 53.7358 50.4979 59.2074 46.8802C65.1608 42.9436 75.2414 43.9358 77.0899 51.9932C77.1079 52.0713 77.1342 52.1421 77.1633 52.2107C76.5016 55.7347 79.0901 58.8149 82.492 60.4892C78.318 61.8349 76.2322 67.4377 78.9226 71.3486C80.4031 73.501 82.9761 74.5693 85.5208 73.9399C87.0324 73.5661 88.7255 72.5301 89.4838 71.0817C92.0108 73.9565 96.402 74.9191 99.8535 73.0928C102.862 71.5012 104.685 67.814 104.255 64.4361C108.841 66.2243 114.248 63.6309 115.903 58.819C117.7 53.5992 113.903 50.4019 109.352 50.0179Z" fill="#FEB9CC"/>
</svg>
