<svg width="67" height="34" viewBox="0 0 67 34" fill="none" xmlns="http://www.w3.org/2000/svg">
<path d="M45.0396 4.36516C46.8997 5.83427 48.6518 7.41558 50.336 9.07854C48.4049 9.42242 46.4743 9.59636 44.4964 9.65079C44.1816 9.65876 43.9807 9.82604 43.8701 10.0405C41.8711 8.3078 39.7252 6.76899 37.4734 5.44592C39.9003 3.45302 41.9079 1.89162 45.0396 4.36516ZM45.8896 14.4405C45.9488 14.5036 46.0108 14.5514 46.0738 14.5912L46.0726 14.5945C45.4977 18.8286 44.9262 22.6192 41.27 25.1678H41.2659C33.2658 26.6655 25.0154 26.0919 17.8365 21.9607C15.8019 20.7903 13.893 19.4029 12.1014 17.8627C16.0172 13.6233 16.954 7.43816 15.4779 1.96465L15.4568 1.91021C26.5635 0.901814 37.8954 5.9073 45.8896 14.4405ZM49.7745 15.2816C49.0942 19.0782 48.2462 22.839 47.2395 26.5606C46.1708 25.9219 45.0988 25.2893 43.9951 24.715C46.4604 22.4825 47.2387 18.4203 47.5658 15.2086C48.302 15.2418 49.0381 15.265 49.7745 15.2816ZM51.3489 18.344C54.5513 17.1371 56.7077 21.1541 58.8899 23.228C57.8021 24.2517 56.6406 25.2674 55.1789 25.6537C53.1503 26.1895 51.3144 25.3138 49.7387 24.0731C49.6506 24.0034 49.5484 23.9848 49.453 23.9981C49.9299 22.0915 50.3537 20.1736 50.7318 18.2438C50.8787 18.3812 51.0914 18.4416 51.3489 18.344ZM61.4169 20.5686C62.3632 21.9501 63.2757 23.2233 64.5131 24.2457C62.2842 25.6949 60.5939 27.958 57.9228 28.6165C54.6061 29.4344 51.2797 28.1246 49.0245 25.6756C49.1173 25.3264 49.2027 24.9766 49.2925 24.6261C50.3642 26.4278 52.4189 27.3452 54.4876 27.2178C56.9186 27.0671 58.8451 25.349 60.5144 23.7252C60.8724 23.376 60.7495 22.8197 60.3655 22.5608C57.4058 20.5639 55.36 15.3122 50.9767 16.9831H50.9741L50.9952 16.8735L51.1379 16.8218C55.5089 14.7559 58.913 16.9134 61.4169 20.5686ZM2.09167 6.39258C5.76449 4.11555 9.65261 2.73407 13.5934 2.13128C13.5855 2.24082 13.5908 2.355 13.6244 2.47981C15.0506 7.72826 13.8285 12.4543 11.0716 16.9506C7.65818 13.8278 4.68398 10.1586 2.09167 6.39258ZM40.6221 27.0531C41.665 28.108 44.2212 30.0292 44.5357 31.4731C44.7742 32.5598 44.9709 32.0726 43.8174 32.2857C42.9035 32.4543 41.6188 32.2857 40.6884 32.2857C39.0418 32.2857 37.0919 32.5744 35.4736 32.2857C33.8565 31.9976 32.9813 31.4293 32.3241 29.8347C32.0623 29.1994 31.9635 28.4426 31.8014 27.7475C34.5898 27.8066 37.4587 27.4222 40.3888 26.5167C40.3842 26.6927 40.4513 26.8805 40.6221 27.0531ZM36.4297 4.8511C25.2862 -1.27696 11.755 -2.13267 0.432383 5.38352C0.0629943 5.62915 -0.149022 6.1662 0.123575 6.57315C7.26245 17.252 18.1551 26.9556 30.7855 27.7097C30.669 29.5572 30.7835 32.5008 32.5276 33.5291C33.649 34.1903 35.2993 33.9187 36.5166 33.9194C38.4287 33.9201 40.3407 33.9194 42.253 33.9194C43.6476 33.9194 46.6204 34.5461 46.6436 32.3043C46.6646 30.1779 43.2716 27.2536 41.7579 26.0242C42.2818 25.8529 42.7566 25.6205 43.19 25.3391C44.458 26.5061 45.8567 27.4594 47.329 28.3516C47.7444 28.6039 48.2855 28.3623 48.4172 27.9055C48.4898 27.6526 48.5531 27.3984 48.624 27.1461C50.4572 29.3899 53.1825 30.6367 56.1344 30.6134C60.75 30.5776 62.7392 26.86 66.578 25.0875C67.1778 24.81 67.1022 23.8839 66.578 23.5845C63.1849 21.65 62.194 17.3695 58.7865 15.419C56.4431 14.0781 53.764 14.021 51.3368 14.9643C51.3481 14.8939 51.3625 14.8249 51.3738 14.7545C51.452 14.2772 51.1801 13.8185 50.6601 13.8099C49.5664 13.7919 48.4733 13.7687 47.3796 13.7787C47.3822 13.5762 47.3185 13.3664 47.1412 13.1779C46.4874 12.4808 45.8087 11.811 45.1131 11.1604C47.5093 11.1611 49.8509 10.875 52.2007 10.3671C52.8124 10.235 52.9574 9.4264 52.5564 9.00751C50.7936 7.1653 48.9579 5.40477 46.9977 3.77699C45.8362 2.81307 44.4336 1.35059 42.9686 0.935677C40.5423 0.247921 37.9255 2.7646 36.4297 4.8511Z" fill="#FFD787"/>
<path d="M25.2834 8.11126C27.5578 9.2843 28.2616 12.0227 27.623 14.3721C27.3431 15.4024 26.6471 16.8456 25.529 17.228C24.2273 17.6728 22.4891 16.833 21.5568 15.9806C19.9039 14.469 19.676 12.1608 20.147 10.0823C21.1182 8.09069 23.1928 7.03382 25.2834 8.11126ZM18.5384 9.60826C18.4502 9.91297 18.5575 10.1865 18.7491 10.3823C15.9013 16.8968 26.5483 23.2625 29.144 15.5664C30.2845 12.1854 29.2281 8.08272 25.8518 6.48946C23.0184 5.15312 19.4384 6.5034 18.5384 9.60826Z" fill="#FFD787"/>
</svg>
