<svg xmlns="http://www.w3.org/2000/svg" xmlns:xlink="http://www.w3.org/1999/xlink"><symbol id="arrow1" viewBox="0 0 66 174">
  
  <path fill="#8DD9E5" d="M24.071 16.939c.387.297.647.753.63 1.305-.014.485-.027.969-.043 1.454a109.313 109.313 0 015.115-12.055 554.653 554.653 0 00-13.842 10.32c2.112-.593 4.225-1.184 6.337-1.778.845-.237 1.473.165 1.803.754zm22.615 93.309c-3.022-11.544-15.836-6.532-18.75 1.747-1.874 5.329-1.254 11.77-.132 17.211 10.529 1.032 22.018-6.971 18.882-18.958zM36.11 2.939c-5.547 9.59-9.49 19.716-11.91 30.53-.42 1.87-3.373 1.45-3.319-.46.104-3.396.205-6.789.305-10.181-11.3 13.53-16.434 30.749-17.428 48.335-1.025 18.109-.563 46.141 17.538 56.08.95.523 1.948.932 2.972 1.25-1.464-7.783-1.596-16.855 3.5-23.122 4.167-5.124 12.004-7.653 17.64-3.284 14.548 11.27-2.079 32.021-16.68 30.916 5.008 17.726 18.895 31.806 36.04 38.308 1.186.45.736 2.309-.531 1.941-19.106-5.56-34.153-21.522-39.078-40.819C5.106 127.822 1.128 101.564.33 84.221-.719 61.633 3.927 38.291 18.515 20.74l-9.873 2.771c-1.507.423-2.99-1.742-1.635-2.818A568.713 568.713 0 0133.797.636c1.423-1.002 3.114.92 2.313 2.303z"/>
  <path fill="#5879E8" d="M24.071 16.939c.387.297.647.753.63 1.305-.014.485-.027.969-.043 1.454a109.313 109.313 0 015.115-12.055 554.653 554.653 0 00-13.842 10.32c2.112-.593 4.225-1.184 6.337-1.778.845-.237 1.473.165 1.803.754zm22.615 93.309c-3.022-11.544-15.836-6.532-18.75 1.747-1.874 5.329-1.254 11.77-.132 17.211 10.529 1.032 22.018-6.971 18.882-18.958zM36.11 2.939c-5.547 9.59-9.49 19.716-11.91 30.53-.42 1.87-3.373 1.45-3.319-.46.104-3.396.205-6.789.305-10.181-11.3 13.53-16.434 30.749-17.428 48.335-1.025 18.109-.563 46.141 17.538 56.08.95.523 1.948.932 2.972 1.25-1.464-7.783-1.596-16.855 3.5-23.122 4.167-5.124 12.004-7.653 17.64-3.284 14.548 11.27-2.079 32.021-16.68 30.916 5.008 17.726 18.895 31.806 36.04 38.308 1.186.45.736 2.309-.531 1.941-19.106-5.56-34.153-21.522-39.078-40.819C5.106 127.822 1.128 101.564.33 84.221-.719 61.633 3.927 38.291 18.515 20.74l-9.873 2.771c-1.507.423-2.99-1.742-1.635-2.818A568.713 568.713 0 0133.797.636c1.423-1.002 3.114.92 2.313 2.303z"/>
</symbol><symbol id="arrow2" viewBox="0 0 46 80">
<path d="M18.6033 55.6046C25.5553 55.9753 33.4184 54.3553 38.3191 49.3021C35.8511 44.3096 31.4567 39.8643 27.5048 36.6565C20.8661 31.2658 8.82409 28.129 3.54094 37.0625C-2.41057 47.1261 10.1747 55.1549 18.6033 55.6046ZM14.7635 29.0431C24.2066 29.0571 35.0216 37.6186 39.9082 47.3899C40.2885 46.8519 40.6502 46.2941 40.9704 45.6937C49.1475 30.3643 36.3959 14.6222 26.3368 3.96579C26.2142 3.83606 26.1361 3.69433 26.0793 3.54942L25.7334 3.49601C27.1186 6.03021 28.117 8.63472 28.805 11.5536C29.1483 13.0074 26.9645 13.7031 26.6197 12.2416C25.7909 8.72385 24.5027 5.65106 22.5433 2.59656C21.9571 1.68259 22.8072 0.719894 23.7527 0.850275C28.785 1.54409 33.7197 2.56197 38.6281 3.91977C40.0661 4.3169 39.6004 6.43199 38.142 6.18243C35.514 5.73311 32.8849 5.28322 30.2565 4.83294C39.9707 15.5259 49.5512 29.1015 44.2164 43.9922C43.4629 46.0968 42.3318 47.9872 40.9207 49.6568C42.1464 52.7444 42.7478 55.8951 42.4924 58.8878C40.9366 77.1478 20.6059 82.3535 5.68132 78.3169C4.56272 78.0151 4.92362 76.318 6.06088 76.5492C20.2568 79.4503 41.5671 74.8243 40.2468 55.9669C40.1391 54.4236 39.7748 52.9052 39.2308 51.4214C30.8826 59.2002 15.8155 60.7812 6.60871 54.0657C-5.25919 45.4106 0.709012 29.0208 14.7635 29.0431Z" fill="#8DD9E5"/>
<path d="M18.6033 55.6046C25.5553 55.9753 33.4184 54.3553 38.3191 49.3021C35.8511 44.3096 31.4567 39.8643 27.5048 36.6565C20.8661 31.2658 8.82409 28.129 3.54094 37.0625C-2.41057 47.1261 10.1747 55.1549 18.6033 55.6046ZM14.7635 29.0431C24.2066 29.0571 35.0216 37.6186 39.9082 47.3899C40.2885 46.8519 40.6502 46.2941 40.9704 45.6937C49.1475 30.3643 36.3959 14.6222 26.3368 3.96579C26.2142 3.83606 26.1361 3.69433 26.0793 3.54942L25.7334 3.49601C27.1186 6.03021 28.117 8.63472 28.805 11.5536C29.1483 13.0074 26.9645 13.7031 26.6197 12.2416C25.7909 8.72385 24.5027 5.65106 22.5433 2.59656C21.9571 1.68259 22.8072 0.719894 23.7527 0.850275C28.785 1.54409 33.7197 2.56197 38.6281 3.91977C40.0661 4.3169 39.6004 6.43199 38.142 6.18243C35.514 5.73311 32.8849 5.28322 30.2565 4.83294C39.9707 15.5259 49.5512 29.1015 44.2164 43.9922C43.4629 46.0968 42.3318 47.9872 40.9207 49.6568C42.1464 52.7444 42.7478 55.8951 42.4924 58.8878C40.9366 77.1478 20.6059 82.3535 5.68132 78.3169C4.56272 78.0151 4.92362 76.318 6.06088 76.5492C20.2568 79.4503 41.5671 74.8243 40.2468 55.9669C40.1391 54.4236 39.7748 52.9052 39.2308 51.4214C30.8826 59.2002 15.8155 60.7812 6.60871 54.0657C-5.25919 45.4106 0.709012 29.0208 14.7635 29.0431Z" fill="#5879E8"/>
</symbol><symbol id="arrow3" viewBox="0 0 57 72">
<path d="M36.5791 23.6428C30.145 21.1706 22.1937 20.2258 15.9018 23.3079C16.5796 28.5986 19.255 33.9842 21.9221 38.1104C26.4019 45.0438 36.7224 51.5909 44.6573 45.1035C53.596 37.7956 44.3798 26.6404 36.5791 23.6428ZM31.4229 48.9365C22.5214 46.0228 15.1508 34.9279 13.7712 24.5557C13.2347 24.9273 12.7092 25.3226 12.2088 25.7693C-0.569081 37.1742 6.25509 55.3832 12.2205 68.1478C12.2932 68.3032 12.32 68.4559 12.3257 68.6049L12.6343 68.7596C12.1654 66.0334 12.0845 63.3622 12.4002 60.5009C12.5568 59.0756 14.8464 59.1148 14.6886 60.5476C14.3077 63.9958 14.5072 67.1812 15.3457 70.5562C15.5966 71.566 14.4766 72.1789 13.6281 71.7701C9.11124 69.5943 4.79357 67.1542 0.613003 64.4137C-0.611996 63.6114 0.526191 61.8342 1.81923 62.5088C4.1492 63.724 6.48018 64.9402 8.81031 66.1564C3.18219 53.4645 -1.36715 38.1966 8.58516 26.3169C9.99131 24.6377 11.6828 23.2689 13.5654 22.1866C13.4297 19.007 13.9038 15.9619 15.1336 13.3234C22.6353 -2.77613 43.5301 -1.25656 56.2719 6.99289C57.2271 7.61055 56.3259 9.04035 55.3298 8.48111C42.8999 1.48632 21.2728 -0.860465 16.2863 16.665C15.8778 18.0992 15.7196 19.5896 15.7423 21.1038C26.1864 16.6063 40.9191 19.7996 47.383 28.7246C55.7158 40.228 44.6707 53.2742 31.4229 48.9365Z" fill="#8DD9E5"/>
<path d="M36.5791 23.6428C30.145 21.1706 22.1937 20.2258 15.9018 23.3079C16.5796 28.5986 19.255 33.9842 21.9221 38.1104C26.4019 45.0438 36.7224 51.5909 44.6573 45.1035C53.596 37.7956 44.3798 26.6404 36.5791 23.6428ZM31.4229 48.9365C22.5214 46.0228 15.1508 34.9279 13.7712 24.5557C13.2347 24.9273 12.7092 25.3226 12.2088 25.7693C-0.569081 37.1742 6.25509 55.3832 12.2205 68.1478C12.2932 68.3032 12.32 68.4559 12.3257 68.6049L12.6343 68.7596C12.1654 66.0334 12.0845 63.3622 12.4002 60.5009C12.5568 59.0756 14.8464 59.1148 14.6886 60.5476C14.3077 63.9958 14.5072 67.1812 15.3457 70.5562C15.5966 71.566 14.4766 72.1789 13.6281 71.7701C9.11124 69.5943 4.79357 67.1542 0.613003 64.4137C-0.611996 63.6114 0.526191 61.8342 1.81923 62.5088C4.1492 63.724 6.48018 64.9402 8.81031 66.1564C3.18219 53.4645 -1.36715 38.1966 8.58516 26.3169C9.99131 24.6377 11.6828 23.2689 13.5654 22.1866C13.4297 19.007 13.9038 15.9619 15.1336 13.3234C22.6353 -2.77613 43.5301 -1.25656 56.2719 6.99289C57.2271 7.61055 56.3259 9.04035 55.3298 8.48111C42.8999 1.48632 21.2728 -0.860465 16.2863 16.665C15.8778 18.0992 15.7196 19.5896 15.7423 21.1038C26.1864 16.6063 40.9191 19.7996 47.383 28.7246C55.7158 40.228 44.6707 53.2742 31.4229 48.9365Z" fill="#5879E8"/>
</symbol><symbol id="arrow4" viewBox="0 0 71 200">
<path d="M58.6133 181.795C58.2852 181.422 58.016 180.882 57.9239 180.256C57.8423 179.707 57.7599 179.159 57.6793 178.61C57.4293 183.146 56.9862 187.546 56.3564 191.829C59.0028 188.426 61.6038 184.948 64.147 181.373C62.7728 181.854 61.3981 182.334 60.0239 182.815C59.4746 183.007 58.9569 182.494 58.6133 181.795ZM25.0894 73.8076C29.3942 87.1885 37.4631 82.6657 37.9502 73.5316C38.2629 67.6535 36.6111 60.284 34.7943 54.0051C27.1926 51.8757 20.6204 59.9145 25.0894 73.8076ZM52.7866 196.592C54.8787 186.211 55.7417 175.074 55.4022 163.017C55.3448 160.934 57.5018 161.68 57.824 163.843C58.3921 167.688 58.9617 171.53 59.5313 175.373C64.9269 161.041 65.2888 141.962 62.668 122.087C59.9711 101.623 54.354 69.7575 39.7438 56.8271C38.976 56.1468 38.1969 55.5915 37.4164 55.1364C39.9158 64.1055 41.7215 74.4171 39.3193 81.0672C37.355 86.5049 32.3189 88.6618 27.5293 83.1893C15.1668 69.0696 22.9468 47.0271 33.4283 49.6112C26.558 29.0321 14.1305 11.7829 0.841344 2.84035C-0.0783592 2.22109 -0.112459 0.152035 0.84867 0.68545C15.3392 8.73714 28.9386 28.2281 36.046 50.5834C51.0241 57.6433 58.7799 87.8151 62.6162 107.577C67.6158 133.313 68.7536 159.388 61.8039 177.985C63.9447 177.236 66.086 176.488 68.2268 175.738C69.2067 175.395 70.6588 177.988 69.9089 179.086C65.0749 186.179 60.0583 192.958 54.8489 199.417C54.0364 200.425 52.4842 198.089 52.7866 196.592Z" fill="#8DD9E5"/>
<path d="M58.6133 181.795C58.2852 181.422 58.016 180.882 57.9239 180.256C57.8423 179.707 57.7599 179.159 57.6793 178.61C57.4293 183.146 56.9862 187.546 56.3564 191.829C59.0028 188.426 61.6038 184.948 64.147 181.373C62.7728 181.854 61.3981 182.334 60.0239 182.815C59.4746 183.007 58.9569 182.494 58.6133 181.795ZM25.0894 73.8076C29.3942 87.1885 37.4631 82.6657 37.9502 73.5316C38.2629 67.6535 36.6111 60.284 34.7943 54.0051C27.1926 51.8757 20.6204 59.9145 25.0894 73.8076ZM52.7866 196.592C54.8787 186.211 55.7417 175.074 55.4022 163.017C55.3448 160.934 57.5018 161.68 57.824 163.843C58.3921 167.688 58.9617 171.53 59.5313 175.373C64.9269 161.041 65.2888 141.962 62.668 122.087C59.9711 101.623 54.354 69.7575 39.7438 56.8271C38.976 56.1468 38.1969 55.5915 37.4164 55.1364C39.9158 64.1055 41.7215 74.4171 39.3193 81.0672C37.355 86.5049 32.3189 88.6618 27.5293 83.1893C15.1668 69.0696 22.9468 47.0271 33.4283 49.6112C26.558 29.0321 14.1305 11.7829 0.841344 2.84035C-0.0783592 2.22109 -0.112459 0.152035 0.84867 0.68545C15.3392 8.73714 28.9386 28.2281 36.046 50.5834C51.0241 57.6433 58.7799 87.8151 62.6162 107.577C67.6158 133.313 68.7536 159.388 61.8039 177.985C63.9447 177.236 66.086 176.488 68.2268 175.738C69.2067 175.395 70.6588 177.988 69.9089 179.086C65.0749 186.179 60.0583 192.958 54.8489 199.417C54.0364 200.425 52.4842 198.089 52.7866 196.592Z" fill="#5879E8"/>
</symbol><symbol id="boy" viewBox="0 0 78 89">
<path d="M37.7398 17.3806C36.391 16.6821 34.6284 17.2807 33.9478 18.6325C33.7029 19.1186 34.3398 19.7038 34.7326 19.2473C35.3308 18.5518 36.2693 18.1338 37.1656 18.4712C38.1573 18.8448 38.4954 19.9835 38.1799 20.9395C37.9606 21.6024 38.9763 21.8747 39.2044 21.2265C39.7065 19.8022 39.0878 18.0783 37.7398 17.3806Z" fill="#8DD9E5"/>
<path d="M52.9033 22.6115C51.2296 22.138 49.2425 23.3766 49.252 25.2211C49.2534 25.5156 49.6688 25.6481 49.813 25.3758C50.3071 24.4406 51.2857 23.6 52.4079 23.8301C53.6226 24.0787 54.0321 25.3913 53.8273 26.4856C53.7158 27.0872 54.5669 27.5622 54.8693 26.9325C55.6628 25.2803 54.6419 23.1036 52.9033 22.6115Z" fill="#8DD9E5"/>
<path d="M42.7458 24.3815C42.407 24.3511 42.9608 24.3756 42.5768 24.3445C42.4653 24.3349 42.3829 24.3312 42.2707 24.3593C42.0762 24.4103 41.8889 24.5287 41.7359 24.656C41.4131 24.9223 41.2047 25.2901 41.1172 25.7022C40.9394 26.5375 41.1908 27.4994 41.9807 27.9071C42.2314 28.0373 42.4609 27.9862 42.6722 27.8168C43.2413 27.361 42.3203 26.8202 42.2685 26.3415C42.2401 26.0825 42.3123 25.808 42.4281 25.5779C42.5287 25.3781 42.7101 25.262 42.8318 25.0955L42.9236 25.0474C43.2741 24.8868 43.0548 24.4089 42.7458 24.3815Z" fill="#8DD9E5"/>
<path d="M44.5756 29.5037C42.0719 29.2092 39.9114 28.6018 37.8019 27.1353C37.5257 26.9437 37.2007 27.3765 37.4456 27.6051C39.3474 29.3875 41.9415 30.5869 44.5756 30.4397C45.1804 30.4056 45.1563 29.5718 44.5756 29.5037Z" fill="#8DD9E5"/>
<path d="M74.864 28.3392C73.6435 28.8349 72.6014 28.2689 71.7431 27.4676C71.7751 27.3914 71.8174 27.3188 71.848 27.2426C72.0054 26.8424 71.703 26.5457 71.3569 26.485C71.2141 25.4047 71.3649 24.357 72.5475 23.7333C73.8839 23.0275 75.6976 23.5972 76.1756 25.0962C76.5683 26.3266 76.102 27.8375 74.864 28.3392ZM50.1074 32.4478C41.2439 34.5787 31.3332 29.6813 30.7503 19.7105C30.5703 16.634 31.2822 13.8424 32.5968 11.3741C35.706 12.2494 38.8509 12.3234 41.9959 11.8447C41.2599 12.7044 40.4795 13.3814 39.3952 14.148C38.915 14.4876 38.9296 15.3155 39.5658 15.4768C43.9786 16.5941 48.2296 16.5341 52.4129 15.152C51.6959 15.8364 50.8507 16.3736 49.8713 16.7339C49.1696 16.9914 49.1674 17.9296 49.8713 18.1878C53.8819 19.6594 57.9537 19.7815 61.9964 18.4401C61.4339 25.0222 56.7165 30.8592 50.1074 32.4478ZM52.7561 39.6596C50.9133 39.2696 49.064 38.9012 47.1978 38.6577C47.1986 37.4376 47.1876 36.2168 47.1541 34.9945C48.1378 34.9353 49.1222 34.8051 50.0972 34.5935C50.9126 34.4167 51.7032 34.1821 52.4683 33.9002C52.6344 35.8461 52.9048 37.6907 52.7561 39.6596ZM43.7024 58.0369C39.6095 57.5945 35.6047 56.6742 31.7486 55.1849C27.7722 53.6473 22.4785 51.3425 19.5135 48.1195C18.8475 47.3959 18.5546 47.6349 18.8154 46.6812C18.9531 46.1795 21.3308 44.4778 21.7337 44.1085C23.1707 42.7945 24.5705 41.442 25.9265 40.0443C28.753 37.1284 31.7413 34.0585 33.7065 30.453C36.7487 33.2498 40.8752 34.8362 45.1685 35.013C45.3805 42.7383 44.8989 50.4073 43.7024 58.0369ZM26.4439 29.7968C27.6731 28.3858 28.9651 27.0288 30.1798 25.6008C30.8873 27.1457 31.8258 28.5212 32.9523 29.7087C32.0473 30.513 31.1795 31.3631 30.3284 32.2318C29.1509 31.281 27.7999 30.4915 26.4439 29.7968ZM42.6335 2.10323C42.7384 2.30448 42.9388 2.44653 43.2579 2.4236C51.0962 1.85166 59.4118 4.72467 61.5854 13.3267C61.8638 14.4291 62.0124 15.5345 62.0467 16.6288L61.874 16.6718C58.5527 17.8571 55.3866 18.082 52.1083 17.2777C53.3879 16.4735 54.373 15.3977 55.1615 13.9105C55.5214 13.2305 54.8161 12.6082 54.1756 12.9094C50.1016 14.8205 45.742 15.3932 41.4071 14.4469C42.5293 13.5176 43.4598 12.4558 44.3028 11.1692C44.6599 10.6246 44.0711 9.94611 43.494 10.1007C39.917 11.0582 36.6518 11.0892 33.0478 10.5906C35.2396 6.94954 38.754 4.06543 42.6335 2.10323ZM33.3699 85.3945C33.6664 85.3969 33.9594 85.4406 34.2465 85.5235C35.107 85.6463 35.2666 86.0183 34.7237 86.642C34.3594 87.49 34.2574 87.3923 33.4683 87.3686C32.9013 87.3519 32.3381 87.2836 31.7836 87.166C30.9951 86.9986 30.2541 86.7145 29.5422 86.3535C29.5939 86.2738 29.6369 86.1819 29.6646 86.0718C30.4858 85.8076 31.2902 85.5307 32.1661 85.433C32.564 85.3888 32.9706 85.3689 33.3699 85.3945ZM4.6479 75.4311C3.94764 75.1531 2.27462 74.4095 2.00282 73.6282C1.79515 73.0296 2.47135 73.321 2.85317 73.4572C3.35814 73.6363 3.8223 73.8797 4.27408 74.1666C5.04064 74.6507 5.62285 75.2722 6.24003 75.8988C5.70154 75.7707 5.16671 75.637 4.6479 75.4311ZM20.444 8.16814C19.4625 7.78636 18.7396 6.95545 18.7491 5.8175C18.7615 4.36804 20.0775 3.36474 21.3468 3.02957C23.0162 2.58859 24.8306 3.16349 24.4954 5.24482C24.2068 7.04128 22.8187 8.51737 20.9606 7.78635C20.6451 7.66279 20.4549 7.90326 20.444 8.16814ZM77.6308 24.1906C76.6449 21.9709 73.8089 21.1688 71.7497 22.3475C70.1706 23.2494 69.1381 25.7466 69.9054 27.5149C67.8243 29.6192 66.0777 31.776 63.3962 33.3423C60.6272 34.959 57.6564 35.6663 54.5771 36.2856C54.529 35.2254 54.3796 34.1821 54.0597 33.2239C61.1359 29.7997 65.4357 21.9058 63.8902 13.7203C62.3447 5.53189 53.401 -1.5304 45.1197 0.288261C45.0381 0.234248 44.9295 0.210567 44.8005 0.237203C35.252 2.229 27.5813 10.6904 28.8864 21.0349C29.0241 22.13 29.2748 23.1599 29.6048 24.1388L29.4555 24.2557C28.9381 24.8609 28.4106 25.4669 27.8764 26.0662C27.8597 25.9286 27.8152 25.7873 27.7052 25.6489C23.5576 20.4534 21.8511 15.7469 21.6237 9.12927C23.7157 9.78777 25.6248 7.51407 25.9957 5.23963C26.3287 3.199 25.4237 1.15837 22.3028 1.2368C20.0258 1.29525 17.5206 2.80094 17.1832 5.25295C16.9202 7.16336 18.1407 9.4341 20.1117 9.62499C19.2745 15.7609 21.9414 22.8543 26.7084 26.6603C26.8643 26.7854 27.0268 26.8313 27.1806 26.8349C26.3105 27.7687 25.4004 28.661 24.4123 29.4475C23.9511 29.8153 24.1544 30.5833 24.5901 30.8518C26.0606 31.7553 27.6578 32.686 29.3024 33.2979C26.6282 36.1258 24.0983 39.1268 21.2674 41.7868C19.05 43.8696 14.447 46.1514 17.6291 49.1613C17.8864 49.404 18.1574 49.6341 18.4234 49.8686C16.104 52.3866 14.0805 55.1783 12.0628 57.9468C10.9487 59.4754 7.34906 62.9108 7.44088 64.887C7.51301 66.44 9.73838 67.7362 10.8518 68.514C11.3123 68.836 11.786 69.1282 12.2676 69.4042C11.1841 70.3542 10.2477 71.4935 9.28733 72.5626C8.6002 73.3271 7.70466 74.0979 7.01316 74.9496C5.45307 73.1368 1.20711 69.9877 0.118473 72.63C-0.477579 74.0765 1.31714 75.369 2.34748 76.0039C3.62192 76.7913 5.1769 77.3231 6.68088 77.1708C6.86013 77.2387 7.06926 77.2404 7.28641 77.1176C8.63372 76.3546 9.64365 74.7415 10.6317 73.5557C11.5761 72.4213 12.562 71.2507 13.2688 69.9412C14.9025 70.7536 16.6374 71.3285 18.4474 71.6608C18.6857 71.7051 18.8883 71.6496 19.0537 71.5453C19.1892 71.5727 19.3342 71.5476 19.4545 71.4261C21.2084 69.6438 23.0075 67.5654 24.3533 65.4449C24.7665 64.7922 23.8236 64.0584 23.2967 64.6177C21.7622 66.2478 20.3587 68.2305 19.1492 70.1678C19.0734 70.1172 18.9932 70.0701 18.8861 70.0441C16.7183 69.4958 14.6292 68.7854 12.7208 67.5744C11.8399 67.0142 10.0255 66.1639 9.77918 65.2319C9.51322 64.2211 10.306 63.5781 11.0959 62.4659C13.8707 58.558 16.7839 54.6699 19.0756 50.4413C25.1432 55.5112 33.219 58.4809 40.9976 59.7049C39.1577 64.7131 37.7929 70.2149 36.5563 75.4395H36.5556C33.6992 75.5126 29.959 75.4068 27.4706 73.7213C26.1597 72.8319 26.9576 71.8132 27.3809 70.3955C27.8575 68.8024 28.3304 67.2148 28.6656 65.5853C29.744 65.6322 30.8166 65.4657 31.8069 65.0289C32.3876 64.7737 32.1027 63.7425 31.4804 63.8061C27.5828 64.2032 24.5595 63.5359 21.9356 60.3471C21.5363 59.8616 20.7952 60.4838 21.0903 61.0092C22.3458 63.2437 24.8189 64.9327 27.4261 65.4382C26.6435 67.3108 26.0191 69.2478 25.4004 71.1828C25.0208 72.3666 24.4473 73.5956 25.5053 74.5522C26.6319 75.5695 28.6772 76.1282 30.1441 76.4944C29.2339 79.4416 28.6037 82.5711 28.0251 85.6027C27.9938 85.7645 28.0076 85.912 28.0462 86.0434C27.644 86.3579 27.5106 87.0564 28.0841 87.3871C29.9014 88.4371 37.1211 90.8071 36.8646 86.5631C36.6686 83.3408 32.5822 83.5457 30.0071 84.5957C30.5987 82.0177 31.146 79.3844 31.4717 76.7779C33.1352 77.0887 34.8381 77.1921 36.5192 77.0271C36.7946 77.2898 37.2624 77.341 37.446 76.9095C39.6816 71.6608 41.7583 65.607 42.5817 59.9303C43.2368 60.0141 43.8897 60.0887 44.536 60.148C44.9295 60.1841 45.4294 59.8113 45.4964 59.4066C46.5522 52.9473 47.1148 46.4584 47.1869 39.9318C49.182 40.5489 51.2238 41.0143 53.2567 41.4782C53.6531 41.5692 54.2054 41.3584 54.2747 40.8915C54.4452 39.7469 54.5807 38.492 54.5939 37.2349C60.4954 37.5723 68.1216 34.0193 71.1762 28.6166C72.1373 29.9344 74.3503 30.3095 75.7435 29.7228C77.8071 28.8541 78.5052 26.1579 77.6308 24.1906Z" fill="#8DD9E5"/>
</symbol><symbol id="car" viewBox="0 0 48 38">
<path d="M34.1764 24.3637C34.7781 24.8504 35.662 24.6116 36.0741 23.9865C36.5348 23.287 36.1275 22.2261 35.248 22.1336C35.1654 22.1251 35.096 22.0876 35.0438 22.0344C34.63 22.029 34.2373 22.1493 33.9289 22.5078C33.4495 23.0664 33.6293 23.9212 34.1764 24.3637ZM32.9281 22.379C33.4427 21.3223 34.9746 20.6748 36.0191 21.3507C36.1249 21.419 36.1822 21.5151 36.2051 21.6161C36.9901 21.9734 37.4697 22.9443 37.2352 23.8529C36.9021 25.146 35.4237 26.0177 34.162 25.464C33.036 24.9701 32.3727 23.5204 32.9281 22.379Z" fill="#8DD9E5"/>
<path d="M2.2866 30.287C3.05316 32.5449 4.44421 34.5236 5.37037 36.7127C5.41813 36.6662 5.47193 36.622 5.53843 36.584C7.25411 35.5943 9.12457 34.908 11.0434 34.4329C10.2375 33.0757 10.0078 31.4225 10.7206 29.6884C11.7338 27.2238 15.7549 23.5579 18.3079 26.1755L18.4031 26.3146C20.1723 26.5915 21.6993 27.8235 22.4986 29.4232C23.8456 28.9443 25.1662 28.4111 26.4647 27.8127C27.4833 27.3423 28.4975 26.6628 29.5935 26.4071C29.2097 25.7639 28.9311 25.0523 28.8019 24.2894C28.2368 20.9547 30.6892 17.5784 34.0607 17.235C34.2839 17.2126 34.4499 17.2888 34.5653 17.4139C36.7748 17.2689 39.0985 18.3703 40.4892 20.1459C42.4952 19.4458 44.5629 18.8739 46.6085 18.3081C46.7263 18.2748 46.8257 18.2869 46.9159 18.3141C42.9867 12.944 37.1854 5.58186 30.0719 10.9085C29.5047 11.3335 28.9344 10.5161 29.2657 10.0029C25.8907 4.53116 20.2963 0.142804 13.4821 1.99572C5.15212 4.26033 3.46364 14.0376 7.34177 20.8205C7.50681 21.1101 7.48988 21.3809 7.37019 21.5925C7.48203 21.9474 7.32787 22.3772 6.85995 22.3252C2.0738 21.7902 1.05999 26.6731 2.2866 30.287ZM17.5296 36.2338C19.8065 36.0071 21.7396 33.9519 21.593 31.5946C21.4369 29.0815 19.2615 27.6259 17.0268 27.1264C16.9288 27.104 16.8629 27.0575 16.8129 27.0014C14.3635 26.531 11.8263 29.4582 11.7513 31.7477C11.6582 34.6041 14.9856 36.486 17.5296 36.2338ZM35.5081 28.246C38.1719 28.0134 40.7789 25.5051 40.1059 22.723C39.5235 20.3163 36.8858 18.7101 34.4296 18.5462C34.375 18.5837 34.3207 18.6218 34.2515 18.6442C32.0653 19.3334 30.0974 21.0049 30.1362 23.4992C30.1792 26.2711 32.8252 28.4812 35.5081 28.246ZM0.182194 25.5765C0.742603 22.9824 2.88268 20.8338 5.43747 20.8846C1.25405 13.9179 3.95452 3.75796 11.8166 0.835611C19.1061 -1.87394 27.1208 2.29134 30.0708 9.21394C32.509 7.2516 36.1416 7.30299 38.9695 8.4631C43.1232 10.1667 45.8278 14.2062 47.9255 17.9743C48.2006 18.4701 47.6551 18.8594 47.2494 18.6581C47.3256 18.9186 47.231 19.2397 46.8994 19.363C45.0306 20.0624 43.1423 20.7649 41.2323 21.3568C41.3327 21.572 41.425 21.7926 41.4985 22.0199C42.6357 25.5541 39.4704 29.0229 36.1064 29.5574C33.7537 29.9321 31.4017 28.8512 30.003 27.0171C29.132 27.9681 27.7409 28.5436 26.601 29.0985C25.4085 29.6795 24.1871 30.194 22.9504 30.6734C23.0803 31.2319 23.1277 31.8124 23.0673 32.398C22.6897 36.0376 19.151 38.3438 15.6739 37.6074C14.2172 37.299 12.8975 36.5719 11.926 35.5773C9.95823 36.1473 8.12888 36.9587 6.31042 37.9047C5.83284 38.1534 5.38971 37.8788 5.22769 37.4998C4.87705 37.8268 4.19876 37.8776 3.91282 37.3758C1.93657 33.907 -0.722805 29.76 0.182194 25.5765Z" fill="#8DD9E5"/>
<path d="M16.371 32.5909C16.836 32.7126 17.401 32.5789 17.6559 32.1425C18.0436 31.4773 17.4839 30.5983 16.7087 30.6982C16.605 30.7122 16.5379 30.6502 16.508 30.57C16.1152 30.6951 15.7884 30.961 15.6512 31.4054C15.4786 31.9646 15.8297 32.4488 16.371 32.5909ZM14.5458 31.4144C14.7169 30.229 16.0463 29.0303 17.2769 29.5326C17.5031 29.6251 17.616 29.8547 17.6079 30.0651C18.3797 30.1914 18.9811 30.9545 18.9004 31.8721C18.7868 33.1567 17.6346 33.9011 16.4078 33.7003C15.2888 33.5176 14.3747 32.6025 14.5458 31.4144Z" fill="#8DD9E5"/>
<path d="M19.813 14.0376C21.6046 13.5666 23.3368 12.9536 25.0699 12.3025C25.0264 12.2415 24.9876 12.1726 24.9612 12.0891C23.8341 8.58462 20.4082 5.47547 16.5696 5.68464C17.7672 8.41716 18.908 11.1968 19.813 14.0376ZM15.46 4.28694C20.3258 4.20653 25.038 6.73231 26.3649 11.7016C26.4393 11.9791 26.3628 12.2058 26.2143 12.3618C26.2321 12.502 26.1868 12.6508 26.0475 12.7354C24.0046 13.9838 21.7867 14.8543 19.5248 15.616C19.1248 15.7509 18.7704 15.457 18.6329 15.11C17.3558 11.8824 16.1722 8.62875 14.7986 5.43858C14.5743 4.91807 14.8282 4.29721 15.46 4.28694Z" fill="#8DD9E5"/>
<path d="M14.7891 15.9921C14.9668 15.6717 14.2051 14.0575 14.1053 13.7226C13.4397 11.4828 12.7245 9.23329 12.2179 6.94752C8.95704 9.95753 8.61911 13.6948 9.46486 17.8692C10.6117 17.4913 11.7627 17.1232 12.9023 16.7229C13.2735 16.593 14.5914 16.3487 14.7891 15.9921ZM12.0317 5.70217L12.0384 5.70036C12.1714 5.42952 12.5746 5.29531 12.727 5.64111C13.5062 7.41302 14.1029 9.2617 14.7074 11.0989C15.1669 12.4948 16.3594 14.6337 16.2496 16.0592C16.1903 16.8306 16.038 16.9805 15.3797 17.3746C13.7142 18.3721 11.2386 18.75 9.40803 19.3521C8.97155 19.4954 8.66445 19.2143 8.58102 18.8685C8.48369 18.8177 8.3918 18.7464 8.32046 18.6291C5.71368 14.3489 8.20439 8.28296 12.0317 5.70217Z" fill="#8DD9E5"/>
</symbol><symbol id="cloud" viewBox="0 0 91 62">
<path d="M87.3826 37.2221C86.011 46.1938 71.2727 50.1967 65.5228 43.2038C64.2975 41.7131 61.8403 43.6509 62.868 45.2648C63.2013 45.7902 63.5768 46.2482 63.9747 46.6736C66.4109 53.6847 55.566 58.5623 50.1073 58.4452C42.8172 58.2913 37.6181 52.6532 36.7999 45.6088C36.7604 45.2757 36.6431 44.9958 36.4824 44.7612L36.5258 44.5528C36.7353 43.0981 34.6957 42.4265 34.2702 43.9281L34.2043 44.1364C33.7247 44.3726 33.3768 44.855 33.3953 45.6088C33.4019 45.8291 33.4335 46.0398 33.448 46.257C30.718 52.8464 24.7797 57.6996 17.1905 56.7835C7.62237 55.6281 3.03987 43.6069 12.9216 38.6718C14.4408 37.9117 13.3749 35.4921 11.7806 35.946C6.07686 37.564 1.05825 31.3207 5.76987 25.7448C8.48801 22.5267 13.3301 22.9211 16.8743 24.0137C17.8809 24.3241 18.3263 22.9474 17.5516 22.3941C17.3961 22.2827 17.2301 22.1982 17.0706 22.0956C17.4027 21.7562 17.4448 21.1832 16.9112 20.8278C9.53416 15.903 12.803 6.57342 21.0392 5.32371C27.1434 4.3967 32.9605 7.365 35.3585 13.0845C35.651 13.7808 36.236 13.8643 36.7446 13.628C37.1148 14.5078 38.6998 14.5326 38.9844 13.441C41.5537 3.58748 54.5976 0.78232 62.6532 5.4724C70.6706 10.1401 71.697 20.4127 66.5953 27.611C65.5716 29.054 67.8563 30.8088 69.0328 29.5037L69.2463 29.2317C69.4887 29.228 69.7285 29.1586 69.9301 28.9892C76.9343 23.0309 88.9624 26.8856 87.3826 37.2221ZM72.2214 24.2209C75.2966 15.8699 71.3083 5.68475 62.839 1.78387C54.1325 -2.22326 40.298 0.477254 37.2268 10.324C34.5047 2.11135 21.665 -0.429993 14.9098 3.80514C9.52889 7.17799 7.31671 16.1523 11.7134 20.3066C6.39705 19.8822 0.988432 23.0002 0.100392 29.1058C-0.662479 34.3584 3.02934 38.5163 7.54201 39.335C2.74211 45.2213 4.13214 54.3546 11.9308 58.0198C20.0984 61.8569 29.9116 58.0436 34.3281 50.6647C36.9514 58.1933 44.7883 63.045 53.0442 61.8077C58.9297 60.9284 67.2462 55.2541 67.1184 48.9247C70.7048 50.5429 75.2267 50.2548 79.0648 49.4035C85.4511 47.9896 90.3353 43.7343 90.9453 36.9101C91.8887 26.3588 80.4272 19.7718 72.2214 24.2209Z" fill="#FDFAF5"/>
</symbol><symbol id="copyright" viewBox="0 0 9 9">
<path d="M4.5 0C6.984 0 9 2.016 9 4.5C9 6.984 6.984 9 4.5 9C2.016 9 0 6.984 0 4.5C0 2.016 2.016 0 4.5 0ZM4.5 0.9C2.511 0.9 0.9 2.511 0.9 4.5C0.9 6.489 2.511 8.1 4.5 8.1C6.489 8.1 8.1 6.489 8.1 4.5C8.1 2.511 6.489 0.9 4.5 0.9ZM4.5 2.25C5.319 2.25 6.03585 2.68785 6.4296 3.3426L5.6583 3.80565C5.53692 3.60326 5.3646 3.43622 5.15853 3.3212C4.95246 3.20618 4.71983 3.14718 4.48385 3.1501C4.24787 3.15302 4.01678 3.21775 3.81362 3.33784C3.61045 3.45793 3.44232 3.62917 3.32598 3.8345C3.20964 4.03984 3.14917 4.27208 3.15058 4.50807C3.15199 4.74407 3.21524 4.97557 3.33403 5.1795C3.45281 5.38342 3.62298 5.55265 3.82757 5.67029C4.03215 5.78794 4.264 5.8499 4.5 5.85C4.73316 5.85015 4.96238 5.78987 5.1653 5.67504C5.36823 5.56021 5.53793 5.39475 5.65785 5.1948L6.4296 5.6574C6.17671 6.07978 5.79224 6.40754 5.33517 6.59041C4.87809 6.77328 4.37365 6.80116 3.8992 6.66978C3.42476 6.53839 3.00651 6.255 2.70861 5.86307C2.41071 5.47114 2.2496 4.9923 2.25 4.5C2.25 3.258 3.258 2.25 4.5 2.25Z" fill="#122659"/>
</symbol><symbol id="facebook" viewBox="0 0 6 12">
<path d="M4 6.9H5.42857L6 4.5H4V3.3C4 2.682 4 2.1 5.14286 2.1H6V0.0840001C5.81371 0.0582001 5.11029 0 4.36743 0C2.816 0 1.71429 0.9942 1.71429 2.82V4.5H0V6.9H1.71429V12H4V6.9Z" fill="#122659"/>
</symbol><symbol id="girl" viewBox="0 0 135 141">
<path d="M103.674 116.035C102.371 116.768 100.996 117.326 99.5661 117.753L99.4968 117.611C99.4152 117.499 99.3189 117.397 99.2341 117.288C99.9442 116.167 100.586 114.999 101.518 114.037C102.552 112.971 104.5 111.625 106.061 112.337C108.371 113.392 104.606 115.511 103.674 116.035ZM56.126 107.646C60.6068 95.9821 64.572 82.8058 64.3992 70.2244C67.2405 70.4854 70.0471 70.3081 72.6163 69.5816C74.2239 69.1277 75.7515 68.4479 77.1822 67.5987L77.2322 67.7143C83.6395 79.1813 91.703 89.2098 101.048 98.3812C90.111 111.848 71.4992 115.694 56.126 107.646ZM59.2148 67.0786C51.728 64.7768 45.4885 59.4252 43.6321 52.4635C57.6421 54.4926 73.504 49.3 81.3424 37.0919C85.1585 41.9811 86.9455 48.2084 85.0107 54.7636C81.6044 66.3031 70.0295 70.403 59.2148 67.0786ZM43.9789 42.5044C44.8613 39.7485 46.325 37.4798 48.179 35.6269C46.5417 39.9408 47.3727 45.3865 50.8464 48.473C51.5176 49.0699 52.4275 48.2416 51.8728 47.5251C48.521 43.1919 48.0048 38.2693 50.6856 33.5262C52.171 32.4821 53.8055 31.6232 55.5368 30.9363C56.3276 36.0705 58.566 41.7708 62.0755 45.4503C62.6152 46.0155 63.5947 45.3559 63.205 44.6479C61.8997 42.2714 60.3513 40.0847 59.2319 37.597C58.1901 35.2797 57.5074 32.8845 56.8776 30.4454C58.5274 29.8852 60.2445 29.4674 61.9807 29.1736C64.2197 30.1607 66.1179 31.3368 67.8299 33.2299C69.4222 34.9912 70.5011 37.0833 71.9107 38.9688C72.2628 39.4399 73.1548 38.9798 72.9445 38.4183C71.5576 34.7338 68.3807 30.5955 64.4989 28.8447C66.5513 28.6365 68.5995 28.5821 70.5656 28.6758C70.6898 28.9109 70.8892 29.1176 71.1836 29.2487C74.5701 30.7563 77.6593 32.9557 80.1168 35.645C71.974 48.8905 57.5407 50.71 43.383 51.3811C42.842 48.6238 42.9752 45.6388 43.9789 42.5044ZM45.161 35.8228C44.3648 36.8471 43.6953 37.9546 43.1258 39.1082C42.7893 38.8664 42.4786 38.5958 42.244 38.1881C41.7735 37.3714 41.619 36.3504 42.1009 35.5009C42.895 34.1014 44.8762 33.868 46.1409 34.6781C45.7955 35.0517 45.465 35.4323 45.161 35.8228ZM24.5114 42.2756C28.0419 41.0733 30.8352 38.4516 32.1168 34.7859C33.0731 32.0508 32.6776 29.2454 35.702 27.3913C37.0004 26.5951 38.7872 26.3606 40.2636 26.4982C44.1296 26.8574 46.6375 29.3872 48.4141 32.5866C47.9937 32.9243 47.5852 33.2683 47.2001 33.6262C47.1535 33.564 47.1084 33.5005 47.0374 33.4471C44.9531 31.9039 41.6483 32.6035 40.5637 35.0413C39.8395 36.6704 40.6108 39.5932 42.3217 40.49C37.2342 44.8745 30.3887 45.269 24.5114 42.2756ZM73.1083 27.4364C72.7042 27.2665 72.2964 27.1059 71.8829 26.9615C71.3648 26.7816 70.9612 26.9342 70.7075 27.2304C70.0147 27.028 69.2948 26.8859 68.5628 26.7718C68.7196 26.722 68.8576 26.6065 68.9232 26.3909C69.3105 25.1121 70.6949 23.792 72.1416 24.4315C73.3243 24.9551 73.5596 26.3615 73.1083 27.4364ZM78.258 16.9725C79.2481 17.174 80.1921 17.4738 81.1176 17.7688C82.7586 18.2902 84.3412 18.7946 86.02 18.7002C83.8143 22.8771 81.6086 28.0038 76.401 28.3051C76.0642 28.3247 75.8241 28.4973 75.6794 28.7256C75.3453 28.5326 75.0138 28.3344 74.6712 28.1585C75.6507 26.3049 74.7284 23.6418 72.7724 22.8398C70.5663 21.9356 67.5888 23.6884 67.7543 26.1998C67.7692 26.4212 67.8907 26.5895 68.0485 26.6926C67.588 26.6341 67.1203 26.5973 66.6496 26.5709C66.0211 19.9443 71.7975 15.659 78.258 16.9725ZM71.06 124.501C71.0384 124.759 71.0142 125.017 70.9934 125.276C70.901 125.27 70.8077 125.276 70.7137 125.311C69.2117 125.882 67.7223 126.446 66.1212 126.669C64.8083 126.851 61.8376 127.097 60.8141 126.087C59.9639 125.246 61.5575 124.949 62.2883 124.772C63.0985 124.575 63.9046 124.446 64.7336 124.37C66.6062 124.2 68.447 124.328 70.2896 124.693C70.6004 124.755 70.8608 124.662 71.06 124.501ZM38.658 67.8358C38.344 67.7741 38.0287 67.9477 37.8407 68.2125C36.456 67.9786 34.7924 67.9491 33.9755 66.6502C33.2871 65.5569 33.6374 63.8641 34.7421 63.1699C35.8434 62.4772 37.5162 62.8532 38.3177 63.8345C39.1724 64.8818 39.2375 66.6296 38.658 67.8358ZM99.9258 48.4321C99.8322 47.1641 100.611 45.9409 101.917 45.7746C103.278 45.6025 104.739 46.579 104.976 47.9533C105.202 49.2644 104.502 50.5014 103.436 51.1973C101.956 50.7756 100.059 50.248 99.9258 48.4321ZM108.246 111.481C106.819 109.996 104.395 110.248 102.692 111.051C100.637 112.019 99.1509 113.943 98.0597 115.922C97.1487 114.946 96.1773 114.011 95.3151 113.017C94.1664 111.693 93.0985 110.273 91.8922 108.997C96.2554 106.512 100.204 103.128 103.463 98.8925C103.735 98.5377 103.679 97.8512 103.342 97.5476C95.9409 90.8886 89.5261 83.1649 84.0785 74.8267C93.6877 72.189 102.827 62.7854 104.365 52.8546C106.221 51.7495 107.352 49.5045 106.862 47.3481C106.334 45.025 103.913 43.4524 101.578 43.7576C99.3218 44.0519 97.8031 46.1512 97.8927 48.3763C98 51.0447 100.26 52.0573 102.537 52.4388L102.563 52.5273L102.551 52.5458C100.534 57.4713 98.6788 61.8523 94.9093 65.7535C91.5674 69.2111 87.5152 71.4821 83.1973 73.4568C81.7863 71.2374 80.4401 68.9796 79.1644 66.6859C79.1037 66.5757 79.0303 66.4898 78.952 66.4153C83.7376 62.8633 87.0801 57.264 87.7428 51.3707C88.6735 43.0943 84.3115 34.7409 77.5826 29.9383C83.4723 28.8213 85.6732 22.5754 88.6045 17.8806C89.1358 17.0291 88.2013 16.2394 87.3837 16.5603C85.3102 17.3749 83.1082 16.5842 80.947 15.8069C79.7368 15.3709 78.5392 14.9397 77.3846 14.7958C74.7334 14.4661 71.9291 14.8961 69.604 16.2578C66.0452 18.3411 63.9915 22.6177 65.1937 26.5415C59.7212 26.6032 53.8138 28.6481 49.3903 31.8402C48.1995 26.9411 42.4406 23.9051 37.6266 24.7878C34.7864 25.308 32.6142 26.953 31.5679 29.6442C30.6641 31.9701 30.6476 34.3941 29.2307 36.5494C27.5193 39.1521 24.9131 40.5624 21.9085 41.0598C21.1172 41.1907 21.0053 42.3093 21.63 42.7103C27.6196 46.5523 35.7929 47.2135 41.6461 43.1669C40.2226 48.8592 41.2032 55.146 44.7524 59.9167C48.7183 65.2486 55.8375 69.0314 62.9522 70.0632C62.5451 72.0918 62.1968 74.1281 61.8604 76.1672C57.6996 76.3205 53.7724 76.2632 49.7431 74.8814C45.7926 73.527 42.9734 71.1531 39.8359 68.6639C41.2362 66.819 41.4771 64.4258 40.0176 62.5088C38.582 60.6231 35.765 60.0344 33.6954 61.1982C31.7872 62.2707 30.9583 64.8081 31.8065 66.8151C32.7989 69.1627 35.704 69.8581 38.0371 69.464C42.5683 76.5243 53.4755 80.1341 61.5457 78.0818C60.9522 81.7223 60.3585 85.3635 59.5163 88.9674C58.013 95.4008 56.0145 101.683 53.6442 107.847C53.4776 108.28 53.709 108.903 54.1172 109.127C59.9064 112.311 66.1478 113.904 72.3239 114.005C71.7979 117.023 71.4555 120.067 71.1798 123.117C71.0855 123.045 70.9678 122.987 70.8204 122.957C68.5556 122.479 56.6052 121.32 58.354 126.434C59.0231 128.392 61.7126 128.775 63.4667 128.861C66.2627 128.999 69.1934 128.186 71.3302 126.351C71.9205 126.793 73.0387 126.547 73.118 125.562C73.4299 121.715 73.6848 117.859 73.6301 113.999C79.4988 113.896 85.27 112.439 90.5097 109.735C91.3895 111.417 92.6101 112.957 93.8111 114.407C95.1574 116.031 96.5576 117.832 98.2792 119.069C98.6063 119.305 98.9189 119.29 99.1689 119.151C99.3187 119.26 99.5169 119.312 99.7579 119.261C102.133 118.749 111.972 115.363 108.246 111.481Z" fill="#FEB9CC"/>
<path d="M57.9167 58.0076C57.8363 56.5593 56.1754 55.5802 54.8575 56.2264C54.1929 56.552 53.7406 57.33 53.9588 58.0498C53.8848 58.2295 53.8201 58.4171 53.7667 58.6168C53.5809 59.31 53.9534 59.8499 54.5694 60.1282C56.0043 60.7769 58.0079 59.6615 57.9167 58.0076Z" fill="#FEB9CC"/>
<path d="M80.4038 48.1258C79.7557 46.9634 77.8378 46.2862 76.836 47.4216C76.7239 47.5485 76.643 47.6918 76.5813 47.84C76.3679 48.0885 76.2013 48.3804 76.1057 48.6975C75.6292 50.2703 77.0935 51.5348 78.5853 51.3669C80.1375 51.1918 81.2097 49.5713 80.4038 48.1258Z" fill="#FEB9CC"/>
<path d="M70.6208 58.7657C70.7267 58.3712 70.8184 58.0256 70.5419 57.6779C70.3877 57.4833 70.1865 57.3172 69.9716 57.1941C69.0436 56.6593 67.8475 56.9124 67.2816 57.8246C67.0233 58.2418 67.5085 58.8487 67.9625 58.5607C68.2913 58.3518 68.7403 58.3176 69.0904 58.4821C68.9002 59.1062 68.6904 59.7586 68.6767 60.3879C68.6619 61.0545 69.6314 61.4143 69.9775 60.7856C70.3157 60.1707 70.4395 59.4388 70.6208 58.7657Z" fill="#FEB9CC"/>
<path d="M72.6841 61.2214C71.7116 63.1483 69.4483 64.3463 67.4021 63.1567C66.9376 62.887 66.5524 63.5286 66.9619 63.8501C69.1847 65.5925 73.1419 64.6852 73.9409 61.8002C74.1423 61.0749 73.053 60.4907 72.6841 61.2214Z" fill="#FEB9CC"/>
</symbol><symbol id="house" viewBox="0 0 30 48">
<path d="M27.3659 30.1748C26.6161 29.9823 25.853 29.8245 25.0864 29.6819C25.2899 28.2251 25.4028 26.7557 25.462 25.3176C26.2628 25.4568 27.0621 25.5987 27.8614 25.7492L27.9834 25.7612C27.8022 27.2373 27.5952 28.7081 27.3659 30.1748ZM26.5952 34.6565L26.5443 34.6371C25.7122 34.5019 24.8725 34.406 24.03 34.3274C24.3917 33.247 24.669 32.1306 24.8767 30.9968C25.6195 31.224 26.3659 31.4365 27.1199 31.611C26.9513 32.6268 26.7861 33.644 26.5952 34.6565ZM23.9791 46.063C20.9275 45.4308 17.8591 44.8979 14.7629 44.5036C13.1126 44.2931 11.4562 44.1266 9.79759 43.9887C9.97739 41.4075 10.2861 38.0576 13.3217 37.2123C17.4361 36.0666 17.2626 41.6733 17.1399 43.9347C17.0967 44.7427 18.2584 44.7807 18.5232 44.1139C19.7741 40.9652 18.1392 35.1907 13.7789 35.5943C9.41362 36 8.45332 40.4263 8.74113 43.8968C8.19756 43.8581 7.47211 43.8848 6.69997 43.9108C5.23513 43.9607 3.60373 44.0107 2.72776 43.619C2.049 43.8195 1.81276 43.5824 2.01904 42.9076C1.97165 42.46 1.96817 42.0117 2.0058 41.5634C2.01555 40.7028 2.07479 39.8402 2.10894 38.9802C2.18559 37.0431 2.26434 35.1061 2.33961 33.1684C2.34727 32.9599 2.35632 32.7507 2.36468 32.5415C4.0804 32.9645 7.14947 33.8684 8.10489 32.2118C8.74253 31.1061 8.80246 29.4594 8.9042 28.0486C9.26519 27.8528 9.29445 27.3339 8.99548 27.0801L9.01083 26.9449C9.20108 25.6007 9.44847 24.2544 9.58645 22.9022C13.482 23.4604 17.3776 24.008 21.264 24.6228L21.2188 24.7007C20.1637 27.9114 19.8557 31.4391 19.6473 34.783C19.6208 35.2047 20.0236 35.4891 20.4187 35.5204C22.3881 35.6763 24.3861 35.8988 26.3631 35.8908C25.6906 39.3039 24.8962 42.6944 23.9791 46.063ZM2.53402 27.9953C3.06435 28.0173 3.59468 28.0366 4.125 28.0553C4.12012 29.3575 4.19259 30.6624 4.36333 31.972C3.69433 31.9174 2.99605 31.8122 2.39604 31.7782C2.44831 30.5179 2.49639 29.2569 2.53402 27.9953ZM4.65185 22.1688C4.38006 23.7808 4.20305 25.3922 4.14382 27.0075C3.61558 27.0255 3.08805 27.0455 2.56121 27.0668C2.59954 25.3256 2.59814 23.5843 2.50406 21.8451C3.21906 21.9583 3.93615 22.0603 4.65185 22.1688ZM7.35714 28.1265C7.34111 28.2484 7.32716 28.371 7.31113 28.4922C7.15712 29.6433 7.3843 31.5364 5.98567 31.9087C5.76615 31.9667 5.51667 31.9927 5.25394 32.0013C5.22189 30.6931 5.22817 29.3908 5.28113 28.0926C5.97383 28.1119 6.66583 28.1219 7.35714 28.1265ZM5.33826 26.9695C5.43652 25.4275 5.60656 23.8901 5.87765 22.3527C6.61564 22.4626 7.35364 22.5792 8.09233 22.6857C7.83309 24.0886 7.67281 25.5181 7.50487 26.9362C6.7836 26.9402 6.06093 26.9502 5.33826 26.9695ZM21.2501 34.1076C21.3595 32.7107 21.531 31.3232 21.7108 29.9371C22.2543 30.1302 22.8021 30.3201 23.3512 30.5059C23.2237 31.7509 23.1094 32.9965 23.039 34.2428C22.4425 34.1955 21.8459 34.1509 21.2501 34.1076ZM23.462 29.4015C22.9115 29.3142 22.3602 29.231 21.8104 29.1524C21.9986 27.7189 22.1888 26.2854 22.3254 24.8439L22.3198 24.7887C22.8488 24.8746 23.377 24.9645 23.9052 25.0531L23.8627 25.2017C23.7596 26.6025 23.6097 28.002 23.462 29.4015ZM17.4375 3.24326C21.0564 9.98099 24.4216 16.8346 27.5053 23.8135C21.5791 22.6837 15.5545 21.6693 9.5077 21.1091C9.27633 20.8899 8.87284 20.8519 8.60454 21.0291C6.67767 20.8659 4.75011 20.7454 2.82254 20.6901C8.68887 15.8701 13.3698 9.52603 17.4375 3.24326ZM29.913 23.9054C26.4419 15.96 22.6418 8.16317 18.4919 0.520197C18.0953 -0.210528 16.9803 -0.135255 16.5636 0.520197C12.0213 7.66426 6.4038 13.9091 1.28731 20.6441C0.713781 20.6421 0.554199 21.5347 1.15142 21.6326L1.19253 21.6386C0.581366 26.0942 0.540957 30.6198 0.366737 35.1061C0.282415 37.259 0.198782 39.4105 0.115156 41.5634C0.0817063 42.4386 -0.277179 44.0933 0.471269 44.87C0.929119 45.3456 1.46781 45.2983 2.05737 45.4102C3.33544 45.6533 4.7501 45.6473 6.14595 45.642C7.03796 45.6386 7.9223 45.6353 8.75855 45.6959C14.0353 46.0829 19.2501 46.8736 24.4126 47.976C24.9018 48.0806 25.4279 47.8375 25.5624 47.3519C27.5841 40.0633 29.0245 32.6721 29.9074 25.1797C29.9283 25.0085 29.8991 24.8666 29.8405 24.7474C30.0064 24.5342 30.0629 24.2484 29.913 23.9054Z" fill="#FFD787"/>
</symbol><symbol id="instagram" viewBox="0 0 12 12">
<path d="M6 0C7.6302 0 7.8336 0.00599997 8.4732 0.036C9.1122 0.066 9.5472 0.1662 9.93 0.315C10.326 0.4674 10.6596 0.6738 10.9932 1.0068C11.2983 1.30674 11.5344 1.66955 11.685 2.07C11.8332 2.4522 11.934 2.8878 11.964 3.5268C11.9922 4.1664 12 4.3698 12 6C12 7.6302 11.994 7.8336 11.964 8.4732C11.934 9.1122 11.8332 9.5472 11.685 9.93C11.5348 10.3307 11.2987 10.6936 10.9932 10.9932C10.6932 11.2982 10.3304 11.5343 9.93 11.685C9.5478 11.8332 9.1122 11.934 8.4732 11.964C7.8336 11.9922 7.6302 12 6 12C4.3698 12 4.1664 11.994 3.5268 11.964C2.8878 11.934 2.4528 11.8332 2.07 11.685C1.6694 11.5347 1.30652 11.2986 1.0068 10.9932C0.701644 10.6933 0.465559 10.3305 0.315 9.93C0.1662 9.5478 0.066 9.1122 0.036 8.4732C0.00779997 7.8336 0 7.6302 0 6C0 4.3698 0.00599997 4.1664 0.036 3.5268C0.066 2.8872 0.1662 2.4528 0.315 2.07C0.465142 1.66931 0.701282 1.30639 1.0068 1.0068C1.3066 0.701539 1.66946 0.465438 2.07 0.315C2.4528 0.1662 2.8872 0.066 3.5268 0.036C4.1664 0.00779997 4.3698 0 6 0ZM6 3C5.20435 3 4.44129 3.31607 3.87868 3.87868C3.31607 4.44129 3 5.20435 3 6C3 6.79565 3.31607 7.55871 3.87868 8.12132C4.44129 8.68393 5.20435 9 6 9C6.79565 9 7.55871 8.68393 8.12132 8.12132C8.68393 7.55871 9 6.79565 9 6C9 5.20435 8.68393 4.44129 8.12132 3.87868C7.55871 3.31607 6.79565 3 6 3ZM9.9 2.85C9.9 2.65109 9.82098 2.46032 9.68033 2.31967C9.53968 2.17902 9.34891 2.1 9.15 2.1C8.95109 2.1 8.76032 2.17902 8.61967 2.31967C8.47902 2.46032 8.4 2.65109 8.4 2.85C8.4 3.04891 8.47902 3.23968 8.61967 3.38033C8.76032 3.52098 8.95109 3.6 9.15 3.6C9.34891 3.6 9.53968 3.52098 9.68033 3.38033C9.82098 3.23968 9.9 3.04891 9.9 2.85ZM6 4.2C6.47739 4.2 6.93523 4.38964 7.27279 4.72721C7.61036 5.06477 7.8 5.52261 7.8 6C7.8 6.47739 7.61036 6.93523 7.27279 7.27279C6.93523 7.61036 6.47739 7.8 6 7.8C5.52261 7.8 5.06477 7.61036 4.72721 7.27279C4.38964 6.93523 4.2 6.47739 4.2 6C4.2 5.52261 4.38964 5.06477 4.72721 4.72721C5.06477 4.38964 5.52261 4.2 6 4.2Z" fill="#122659"/>
</symbol><symbol id="logo" viewBox="0 0 111 17">
<path d="M6.05685 13.6C4.16794 13.6 2.70334 13.153 1.66307 12.2589C0.636483 11.3648 0.0889707 10.1056 0.0205317 8.48111C0.00684389 8.14111 0 7.58704 0 6.81889C0 6.03815 0.00684389 5.47148 0.0205317 5.11889C0.0889707 3.50704 0.643327 2.25407 1.6836 1.36C2.73756 0.453333 4.19531 0 6.05685 0C7.27507 0 8.33587 0.195185 9.23927 0.585556C10.1427 0.963333 10.8407 1.48593 11.3335 2.15333C11.8263 2.80815 12.0863 3.55111 12.1137 4.38222V4.42C12.1137 4.52074 12.0658 4.60889 11.97 4.68444C11.8879 4.74741 11.792 4.77889 11.6825 4.77889H9.73203C9.56777 4.77889 9.44458 4.74741 9.36246 4.68444C9.28033 4.62148 9.21189 4.50185 9.15714 4.32556C8.93814 3.53222 8.57541 2.97815 8.06896 2.66333C7.56251 2.33593 6.88496 2.17222 6.03632 2.17222C4.06528 2.17222 3.03869 3.18593 2.95657 5.21333C2.94288 5.55333 2.93603 6.07593 2.93603 6.78111C2.93603 7.4863 2.94288 8.02148 2.95657 8.38667C3.03869 10.4141 4.06528 11.4278 6.03632 11.4278C6.88496 11.4278 7.56251 11.2641 8.06896 10.9367C8.5891 10.6093 8.95182 10.0552 9.15714 9.27444C9.1982 9.09815 9.2598 8.97852 9.34193 8.91556C9.43774 8.85259 9.56777 8.82111 9.73203 8.82111H11.6825C11.8057 8.82111 11.9084 8.85889 11.9905 8.93444C12.0863 9.01 12.1274 9.10444 12.1137 9.21778C12.0863 10.0489 11.8263 10.7981 11.3335 11.4656C10.8407 12.1204 10.1427 12.643 9.23927 13.0333C8.33587 13.4111 7.27507 13.6 6.05685 13.6Z" fill="#122659"/>
<path d="M14.8155 13.4111C14.6787 13.4111 14.5623 13.367 14.4665 13.2789C14.3707 13.1907 14.3228 13.0837 14.3228 12.9578V0.453333C14.3228 0.314815 14.3707 0.207778 14.4665 0.132223C14.5623 0.0440743 14.6787 0 14.8155 0H16.5197C16.6702 0 16.7866 0.0440743 16.8687 0.132223C16.9645 0.207778 17.0124 0.314815 17.0124 0.453333V12.9578C17.0124 13.0837 16.9645 13.1907 16.8687 13.2789C16.7866 13.367 16.6702 13.4111 16.5197 13.4111H14.8155Z" fill="#122659"/>
<path d="M24.335 13.6C22.8157 13.6 21.6043 13.197 20.7009 12.3911C19.8112 11.5726 19.339 10.4267 19.2842 8.95333L19.2637 8.48111L19.2842 8.00889C19.3527 6.57333 19.8318 5.4463 20.7215 4.62778C21.6249 3.80926 22.8294 3.4 24.335 3.4C25.9502 3.4 27.1958 3.85333 28.0718 4.76C28.9615 5.66667 29.4064 6.87556 29.4064 8.38667V8.78333C29.4064 8.90926 29.3585 9.0163 29.2627 9.10444C29.1668 9.19259 29.0436 9.23667 28.8931 9.23667H22.0766V9.38778C22.1039 10.0804 22.3092 10.6659 22.6925 11.1444C23.0895 11.6104 23.6301 11.8433 24.3145 11.8433C25.1221 11.8433 25.7723 11.5537 26.265 10.9744C26.3882 10.8359 26.484 10.7478 26.5525 10.71C26.6346 10.6722 26.7509 10.6533 26.9015 10.6533H28.6672C28.7904 10.6533 28.8931 10.6911 28.9752 10.7667C29.071 10.8296 29.1189 10.9115 29.1189 11.0122C29.1189 11.3144 28.9205 11.6733 28.5235 12.0889C28.1403 12.4919 27.5859 12.8444 26.8604 13.1467C26.135 13.4489 25.2932 13.6 24.335 13.6ZM26.6141 7.65V7.59333C26.6141 6.85037 26.4087 6.25222 25.9981 5.79889C25.6012 5.34556 25.0468 5.11889 24.335 5.11889C23.6233 5.11889 23.0689 5.34556 22.672 5.79889C22.275 6.25222 22.0766 6.85037 22.0766 7.59333V7.65H26.6141Z" fill="#122659"/>
<path d="M34.9827 13.4111C34.7773 13.4111 34.6199 13.3733 34.5104 13.2978C34.4009 13.2096 34.312 13.09 34.2435 12.9389L30.4041 4.17444L30.363 4.00444C30.363 3.89111 30.4041 3.79667 30.4862 3.72111C30.582 3.63296 30.6915 3.58889 30.8147 3.58889H32.4778C32.7379 3.58889 32.9158 3.70852 33.0116 3.94778L35.7423 10.5778L38.473 3.94778C38.5141 3.85963 38.5757 3.77778 38.6578 3.70222C38.7536 3.62667 38.87 3.58889 39.0069 3.58889H40.6905C40.8 3.58889 40.8958 3.63296 40.9779 3.72111C41.0737 3.79667 41.1216 3.89111 41.1216 4.00444C41.1216 4.08 41.1148 4.13667 41.1011 4.17444L37.2411 12.9389C37.1727 13.09 37.0837 13.2096 36.9742 13.2978C36.8647 13.3733 36.7073 13.4111 36.502 13.4111H34.9827Z" fill="#122659"/>
<path d="M47.2127 13.6C45.6933 13.6 44.4819 13.197 43.5785 12.3911C42.6888 11.5726 42.2166 10.4267 42.1619 8.95333L42.1413 8.48111L42.1619 8.00889C42.2303 6.57333 42.7094 5.4463 43.5991 4.62778C44.5025 3.80926 45.707 3.4 47.2127 3.4C48.8278 3.4 50.0734 3.85333 50.9494 4.76C51.8391 5.66667 52.284 6.87556 52.284 8.38667V8.78333C52.284 8.90926 52.2361 9.0163 52.1403 9.10444C52.0444 9.19259 51.9213 9.23667 51.7707 9.23667H44.9542V9.38778C44.9815 10.0804 45.1869 10.6659 45.5701 11.1444C45.9671 11.6104 46.5077 11.8433 47.1921 11.8433C47.9997 11.8433 48.6499 11.5537 49.1426 10.9744C49.2658 10.8359 49.3616 10.7478 49.4301 10.71C49.5122 10.6722 49.6286 10.6533 49.7791 10.6533H51.5448C51.668 10.6533 51.7707 10.6911 51.8528 10.7667C51.9486 10.8296 51.9965 10.9115 51.9965 11.0122C51.9965 11.3144 51.7981 11.6733 51.4011 12.0889C51.0179 12.4919 50.4635 12.8444 49.7381 13.1467C49.0126 13.4489 48.1708 13.6 47.2127 13.6ZM49.4917 7.65V7.59333C49.4917 6.85037 49.2864 6.25222 48.8757 5.79889C48.4788 5.34556 47.9244 5.11889 47.2127 5.11889C46.5009 5.11889 45.9465 5.34556 45.5496 5.79889C45.1526 6.25222 44.9542 6.85037 44.9542 7.59333V7.65H49.4917Z" fill="#122659"/>
<path d="M54.9562 13.4111C54.8193 13.4111 54.7029 13.367 54.6071 13.2789C54.5113 13.1907 54.4634 13.0837 54.4634 12.9578V4.06111C54.4634 3.93519 54.5113 3.82815 54.6071 3.74C54.7029 3.63926 54.8193 3.58889 54.9562 3.58889H56.6192C56.7698 3.58889 56.893 3.63296 56.9888 3.72111C57.0846 3.80926 57.1325 3.92259 57.1325 4.06111V4.83556C57.461 4.43259 57.8717 4.12407 58.3644 3.91C58.8709 3.69593 59.4458 3.58889 60.0891 3.58889H60.9309C61.0814 3.58889 61.1978 3.63296 61.2799 3.72111C61.3757 3.79667 61.4236 3.9037 61.4236 4.04222V5.40222C61.4236 5.52815 61.3757 5.63518 61.2799 5.72333C61.1978 5.81148 61.0814 5.85556 60.9309 5.85556H59.3294C58.6861 5.85556 58.1796 6.02556 57.8101 6.36556C57.4405 6.70556 57.2557 7.17148 57.2557 7.76333V12.9578C57.2557 13.0837 57.2078 13.1907 57.112 13.2789C57.0162 13.367 56.893 13.4111 56.7424 13.4111H54.9562Z" fill="#122659"/>
<path d="M63.7641 13.4111C63.6272 13.4111 63.5109 13.367 63.4151 13.2789C63.3192 13.1907 63.2713 13.0837 63.2713 12.9578V0.661112C63.2713 0.522593 63.3124 0.409259 63.3945 0.321111C63.4903 0.232963 63.6135 0.188889 63.7641 0.188889H69.7183C71.3198 0.188889 72.5106 0.516296 73.2908 1.17111C74.0847 1.81333 74.4816 2.69482 74.4816 3.81556C74.4816 4.47037 74.3037 5.03074 73.9478 5.49667C73.6056 5.95 73.2018 6.27741 72.7365 6.47889C73.3113 6.71815 73.7904 7.10852 74.1737 7.65C74.5706 8.19148 74.7691 8.80852 74.7691 9.50111C74.7691 10.6722 74.3379 11.6167 73.4756 12.3344C72.6269 13.0522 71.4293 13.4111 69.8825 13.4111H63.7641ZM69.3487 5.61C70.0605 5.61 70.6012 5.45259 70.9707 5.13778C71.3403 4.82296 71.5251 4.40111 71.5251 3.87222C71.5251 3.33074 71.3403 2.91518 70.9707 2.62556C70.6012 2.32333 70.0605 2.17222 69.3487 2.17222H66.1252V5.61H69.3487ZM69.554 11.4089C70.2658 11.4089 70.8202 11.2326 71.2171 10.88C71.614 10.5148 71.8125 10.0552 71.8125 9.50111C71.8125 8.93444 71.614 8.47481 71.2171 8.12222C70.8202 7.75704 70.2658 7.57444 69.554 7.57444H66.1252V11.4089H69.554Z" fill="#122659"/>
<path d="M80.2007 13.6C79.5026 13.6 78.8593 13.4741 78.2707 13.2222C77.6958 12.9578 77.2373 12.6052 76.8951 12.1644C76.5666 11.7237 76.4023 11.2389 76.4023 10.71C76.4023 9.8537 76.7787 9.16111 77.5316 8.63222C78.2844 8.10333 79.3178 7.74444 80.6319 7.55556L83.4447 7.17778V6.78111C83.4447 6.22704 83.2941 5.81148 82.993 5.53444C82.6919 5.25741 82.2059 5.11889 81.5352 5.11889C81.0835 5.11889 80.714 5.20074 80.4265 5.36444C80.1528 5.51556 79.9338 5.66667 79.7695 5.81778C79.6053 5.98148 79.4958 6.08852 79.441 6.13889C79.3863 6.29 79.2836 6.36556 79.133 6.36556H77.5521C77.4289 6.36556 77.3194 6.32778 77.2236 6.25222C77.1415 6.17667 77.1004 6.07593 77.1004 5.95C77.1141 5.63519 77.2783 5.2763 77.5932 4.87333C77.9217 4.47037 78.4213 4.12407 79.092 3.83444C79.7627 3.54481 80.5839 3.4 81.5558 3.4C83.1709 3.4 84.3481 3.7337 85.0872 4.40111C85.8264 5.06852 86.1959 5.9437 86.1959 7.02667V12.9578C86.1959 13.0837 86.148 13.1907 86.0522 13.2789C85.9701 13.367 85.8538 13.4111 85.7032 13.4111H84.0401C83.9032 13.4111 83.7869 13.367 83.6911 13.2789C83.5953 13.1907 83.5474 13.0837 83.5474 12.9578V12.2211C83.2462 12.6241 82.8151 12.9578 82.2539 13.2222C81.7063 13.4741 81.022 13.6 80.2007 13.6ZM80.8988 11.8056C81.6516 11.8056 82.2675 11.5789 82.7466 11.1256C83.2257 10.6722 83.4652 10.0111 83.4652 9.14222V8.74556L81.4121 9.04778C80.6182 9.16111 80.0159 9.3437 79.6053 9.59556C79.2083 9.84741 79.0098 10.1559 79.0098 10.5211C79.0098 10.9241 79.1946 11.2389 79.5642 11.4656C79.9338 11.6922 80.3786 11.8056 80.8988 11.8056Z" fill="#122659"/>
<path d="M94.7431 13.6C93.3332 13.6 92.2382 13.153 91.458 12.2589V12.9578C91.458 13.0837 91.4101 13.1907 91.3143 13.2789C91.2321 13.367 91.1158 13.4111 90.9652 13.4111H89.3432C89.2064 13.4111 89.09 13.367 88.9942 13.2789C88.8984 13.1907 88.8505 13.0837 88.8505 12.9578V0.453333C88.8505 0.314815 88.8984 0.207778 88.9942 0.132223C89.09 0.0440743 89.2064 0 89.3432 0H91.0884C91.239 0 91.3553 0.0440743 91.4375 0.132223C91.5333 0.207778 91.5812 0.314815 91.5812 0.453333V4.64667C92.3614 3.81556 93.4154 3.4 94.7431 3.4C96.1255 3.4 97.1863 3.81556 97.9255 4.64667C98.6646 5.47778 99.0616 6.55444 99.1163 7.87667C99.13 8.02778 99.1368 8.22926 99.1368 8.48111C99.1368 8.74556 99.13 8.95333 99.1163 9.10444C99.0616 10.4644 98.6646 11.5537 97.9255 12.3722C97.1863 13.1907 96.1255 13.6 94.7431 13.6ZM93.9834 11.5789C95.4617 11.5789 96.2487 10.7415 96.3445 9.06667C96.3582 8.94074 96.3651 8.75185 96.3651 8.5C96.3651 8.24815 96.3582 8.05926 96.3445 7.93333C96.2487 6.25852 95.4617 5.42111 93.9834 5.42111C93.2169 5.42111 92.6283 5.64778 92.2177 6.10111C91.8207 6.54185 91.6086 7.07704 91.5812 7.70667L91.5607 8.42444L91.5812 9.16111C91.6222 9.84111 91.8344 10.4141 92.2177 10.88C92.6009 11.3459 93.1895 11.5789 93.9834 11.5789Z" fill="#122659"/>
<path d="M102.911 17C102.801 17 102.705 16.9622 102.623 16.8867C102.541 16.8111 102.5 16.723 102.5 16.6222C102.5 16.5089 102.527 16.4081 102.582 16.32L104.183 12.8256L100.241 4.26889C100.187 4.15556 100.159 4.06741 100.159 4.00444C100.173 3.89111 100.221 3.79667 100.303 3.72111C100.385 3.63296 100.488 3.58889 100.611 3.58889H102.274C102.534 3.58889 102.719 3.70852 102.828 3.94778L105.559 10.1244L108.372 3.94778C108.481 3.70852 108.666 3.58889 108.926 3.58889H110.569C110.678 3.58889 110.774 3.62667 110.856 3.70222C110.952 3.77778 111 3.86593 111 3.96667C111 4.05481 110.973 4.15556 110.918 4.26889L105.107 16.6411C104.984 16.8804 104.793 17 104.533 17H102.911Z" fill="#122659"/>
</symbol><symbol id="map_pin" viewBox="0 0 32 39">
<path d="M27.3138 27.5771L16 39L4.68623 27.5771C2.44861 25.3179 0.924776 22.4394 0.307428 19.3058C-0.309919 16.1722 0.0069455 12.9241 1.21795 9.97229C2.42896 7.02048 4.47972 4.49753 7.1109 2.72248C9.74208 0.94743 12.8355 0 16 0C19.1645 0 22.2579 0.94743 24.8891 2.72248C27.5203 4.49753 29.571 7.02048 30.782 9.97229C31.9931 12.9241 32.3099 16.1722 31.6926 19.3058C31.0752 22.4394 29.5514 25.3179 27.3138 27.5771ZM16 19.744C16.943 19.744 17.8474 19.3658 18.5142 18.6926C19.181 18.0194 19.5556 17.1063 19.5556 16.1542C19.5556 15.2021 19.181 14.289 18.5142 13.6158C17.8474 12.9426 16.943 12.5643 16 12.5643C15.057 12.5643 14.1526 12.9426 13.4858 13.6158C12.819 14.289 12.4444 15.2021 12.4444 16.1542C12.4444 17.1063 12.819 18.0194 13.4858 18.6926C14.1526 19.3658 15.057 19.744 16 19.744Z" fill="#5879E8"/>
</symbol><symbol id="nav-close" viewBox="0 0 16 16">
<path d="M1 1L8 8M15 15L8 8M8 8L15 1L1 15" stroke="#122659" stroke-width="2"/>
</symbol><symbol id="nav-open">
<path d="M0 1H24M0 7H24M0 13H24" stroke="#122659" stroke-width="2"/>
</symbol><symbol id="pencil" viewBox="0 0 44 132">
<path d="M32.7747 128.836C35.6849 128.398 38.6226 127.868 40.4614 125.449C42.5028 122.758 41.4863 119.604 40.4888 116.648C38.6637 118.651 35.7303 119.632 33.2096 120.302C30.2646 121.085 26.0624 121.303 22.7173 120.25C23.0783 122.343 23.3865 124.732 24.3133 126.589C25.3245 128.615 26.5416 128.983 28.8691 129.165C30.1517 129.264 31.5165 129.027 32.7747 128.836ZM39.3266 109.294C39.1915 109.126 39.1546 108.951 39.1789 108.794C36.7078 112.593 30.69 114.796 26.2936 114.929C24.2025 114.993 21.7061 114.768 19.6108 113.878C21.1962 118.32 25.9273 119.454 30.5422 118.639C34.2567 117.983 44.0577 115.151 39.3266 109.294ZM37.7486 103.301C37.6346 103.373 37.5111 103.43 37.3759 103.467C32.7103 108.595 24.0621 108.298 17.6801 107.164C16.1717 112.573 24.9794 113.006 28.278 112.474C32.3863 111.81 39.7066 108.874 37.7486 103.301ZM35.3735 102.154C32.6048 74.3566 26.245 47.5381 18.4043 20.7676C16.7354 22.5462 14.8259 23.9442 12.7475 24.9396C12.9533 25.063 13.1507 25.2177 13.3111 25.4446C16.689 30.2219 17.3983 37.3968 18.818 43.0033C20.5312 49.7788 22.1315 56.5825 23.6219 63.4102C26.529 76.7426 28.9842 90.165 31.0447 103.651C31.0858 103.92 31.0732 104.17 31.0373 104.409C32.5573 104.03 34.0425 103.457 35.4939 102.601C35.4369 102.465 35.3915 102.32 35.3735 102.154ZM17.3424 19.4711C13.8748 16.2413 10.6068 12.7866 7.3187 9.356C6.55658 10.9809 4.95212 12.0118 3.12388 12.1185C3.2421 15.9861 3.34767 19.8538 3.29278 23.7183C3.29067 23.8166 3.25795 23.8908 3.23895 23.9755C8.40172 24.3164 13.4019 22.9299 17.3424 19.4711ZM5.29413 9.27444C5.04713 9.16883 4.81173 9.04441 4.59006 8.90743C4.52884 9.26816 4.44228 9.62576 4.33884 9.98126C4.76634 9.84952 5.15163 9.6268 5.48835 9.32672L5.29413 9.27444ZM19.6319 104.885C22.0101 105.019 24.3017 105.139 26.5184 105.034L26.4814 104.896C24.4273 91.4092 21.9795 77.9859 19.0788 64.6503C17.6633 58.1477 16.1464 51.6661 14.5272 45.2095C13.0473 39.305 9.85101 32.355 10.268 26.2612C10.2775 26.1232 10.3176 26.0061 10.3503 25.8858C7.94677 26.6324 5.36907 26.8739 2.70271 26.554C10.2585 52.0781 14.9568 78.7376 19.6319 104.885ZM24.174 131.19C21.0284 129.527 20.5798 123.258 20.1048 120.226C20.0404 119.812 20.1565 119.459 20.3687 119.19C18.2934 117.885 16.9982 115.769 17.373 112.544L17.3877 112.495C17.012 112.159 16.6647 111.793 16.3712 111.37C14.9462 109.3 15.0645 106.3 17.2759 104.983C12.415 77.9984 5.73219 51.4287 0.518749 24.5308C0.431139 24.0822 0.695034 23.7643 1.02331 23.6483C0.438528 16.2454 0.452249 8.7966 0.00257831 1.38332C-0.0744806 0.118146 1.59542 -0.428696 2.44093 0.382687C8.52416 6.21607 14.8586 12.2544 19.578 19.2599L19.6488 19.4261C19.7628 19.5192 19.8588 19.6457 19.9232 19.812C29.8318 45.655 35.2954 73.2869 38.1212 100.751C38.4621 100.603 38.8601 100.827 38.9012 101.164C39.1124 101.24 39.3076 101.386 39.4427 101.661C40.7073 104.255 40.4909 106.527 39.4016 108.425C39.6021 108.272 39.8998 108.235 40.1795 108.449C42.2537 110.045 42.7097 112.785 41.5549 115.138C41.4905 115.269 41.3998 115.379 41.329 115.502C41.5497 115.523 41.7566 115.627 41.8727 115.875C43.285 118.906 44.8251 122.448 43.4856 125.777C42.1661 129.056 38.4906 130.262 35.3081 130.981C32.1857 131.688 27.1401 132.759 24.174 131.19Z" fill="#8DD9E5"/>
</symbol><symbol id="phone">
<path d="M11.404 9.92279C10.9139 9.43898 10.3021 9.43898 9.8152 9.92279C9.44375 10.2911 9.0723 10.6594 8.7071 11.034C8.60721 11.137 8.52294 11.1588 8.4012 11.0902C8.16085 10.9591 7.9049 10.853 7.67391 10.7094C6.59703 10.032 5.69494 9.16118 4.89587 8.18108C4.49945 7.69414 4.14673 7.17288 3.90014 6.58606C3.8502 6.46745 3.85956 6.38942 3.95632 6.29266C4.32777 5.9337 4.68985 5.56538 5.05506 5.19706C5.56385 4.68516 5.56385 4.08586 5.05194 3.57083C4.76165 3.27743 4.47135 2.99026 4.18106 2.69685C3.88141 2.3972 3.58488 2.09443 3.2821 1.7979C2.79204 1.32033 2.18025 1.32033 1.69331 1.80102C1.31874 2.16934 0.959777 2.54703 0.578966 2.9091C0.226247 3.24309 0.0483275 3.65199 0.0108707 4.12956C-0.048436 4.90677 0.14197 5.64029 0.41041 6.35508C0.959777 7.83461 1.79631 9.1487 2.81077 10.3535C4.18106 11.9829 5.81668 13.272 7.7301 14.2022C8.59161 14.6204 9.48433 14.9419 10.4551 14.995C11.1231 15.0325 11.7036 14.8639 12.1687 14.3426C12.4871 13.9868 12.8461 13.6622 13.1832 13.3219C13.6826 12.8163 13.6857 12.2045 13.1894 11.7051C12.5964 11.1089 12.0002 10.5159 11.404 9.92279Z" fill="#122659"/>
<path d="M10.8075 7.43508L11.9593 7.23843C11.7783 6.18029 11.2789 5.22203 10.5204 4.46042C9.71817 3.65823 8.70371 3.15257 7.58625 2.9965L7.42394 4.15453C8.28857 4.27626 9.07516 4.66643 9.69632 5.28758C10.2831 5.8744 10.6671 6.61728 10.8075 7.43508Z" fill="#122659"/>
<path d="M12.609 2.42842C11.2793 1.09872 9.59684 0.259073 7.73961 0L7.57729 1.15802C9.1817 1.38276 10.6363 2.11004 11.785 3.25558C12.8743 4.34493 13.5891 5.72145 13.8482 7.23531L15 7.03866C14.6972 5.28446 13.8701 3.69257 12.609 2.42842Z" fill="#122659"/>
</symbol><symbol id="rainbow" viewBox="0 0 121 104">
<path d="M113.557 58.7487C111.847 62.8454 107.613 63.8055 103.772 62.6112C103.705 62.4455 103.639 62.279 103.558 62.1179C103.078 61.1638 101.314 61.4685 101.618 62.6468C102.407 65.701 102.147 68.9839 99.3663 70.9762C96.324 73.1558 92.2645 71.7512 90.1075 69.0701C89.8769 68.7839 89.593 68.7148 89.3334 68.763C89.1444 68.7518 88.9527 68.8169 88.834 68.9826C87.8325 70.3884 87.093 71.6887 85.2796 72.1391C83.3221 72.626 81.4559 71.7037 80.4991 69.9598C78.2814 65.9208 81.4829 62.3289 85.429 61.6498C86.2049 61.5158 86.2211 60.3796 85.4235 60.2588L85.2502 60.2466C81.907 57.9947 77.0711 55.0784 80.4096 50.4983C83.4821 46.2826 88.6419 48.0893 91.967 50.8512C92.7519 51.5034 93.9563 50.305 93.2284 49.5476C93.0995 49.4117 92.9569 49.2883 92.8194 49.1589C93.2431 49.2602 93.7706 49.0621 93.7864 48.5512C93.9282 43.9747 97.5427 39.7786 102.414 40.5213C107.208 41.2522 109.118 46.3166 106.694 50.1293C106.296 50.258 106.107 50.6014 106.126 50.9566C105.571 52.0153 107.149 53.0496 108.023 52.0725L108.078 52.0026C109.29 52.1733 110.522 52.3183 111.645 52.7945C114.151 53.8561 114.522 56.4348 113.557 58.7487ZM61.0062 43.534C53.5366 46.5588 49.333 54.7741 51.4351 62.5094C49.5527 62.3478 47.6103 62.651 45.8163 63.3753C43.8491 53.204 46.4296 42.7977 56.4177 37.9367C66.0662 33.2398 77.4646 37.1129 82.909 46.1942C81.2865 46.5999 79.7902 47.5 78.6295 49.0362C75.6945 42.7304 67.39 40.9491 61.0062 43.534ZM56.9543 68.2501C60.3193 72.9896 56.6364 78.6375 51.3876 78.3305C51.1552 78.1251 50.9087 77.9315 50.6368 77.7629C49.8146 77.2532 48.5922 78.2572 49.3638 79.0771C51.4605 81.3053 52.4375 84.9066 49.9693 87.3247C47.3258 89.9135 42.8522 88.5331 40.9905 85.7134C40.8688 85.5296 40.6811 85.5302 40.5395 85.6218C40.161 85.4213 39.6631 85.4944 39.4726 86.0032C37.8886 90.2179 36.4003 94.9867 30.7926 94.8787C23.1795 94.7309 27.1642 85.5164 28.8029 81.6901C29.354 81.116 28.6844 80.2433 27.9365 80.4702C25.5379 81.1996 19.627 83.7286 19.2077 79.1234C18.8427 75.127 23.4331 74.0353 26.5761 74.0706C26.7267 74.1659 26.8718 74.2682 27.0342 74.3489C27.831 74.7473 28.6974 73.5981 28.0828 72.9422C24.9702 69.6184 25.9823 65.9267 30.3098 64.2022C34.2734 62.6227 39.4519 63.7172 39.8283 68.718C39.8945 69.5943 41.2265 69.5578 41.3384 68.7165C41.352 68.6097 41.3577 68.5091 41.3668 68.4052C41.6429 68.5233 41.9662 68.5176 42.2503 68.2808C46.5628 64.6776 53.1007 62.8202 56.9543 68.2501ZM32.8674 37.8675C36.8653 29.4469 44.023 23.0141 52.7152 19.7333C70.534 13.0093 90.3436 21.6262 98.4607 38.7019C95.7147 39.7159 93.6512 42.15 92.766 45.1227C88.7203 30.8847 73.2324 21.9658 58.7688 25.6388C45.2952 29.0603 28.1133 47.2265 37.6545 61.7469C38.212 62.5948 39.5468 61.7528 39.1607 60.8522C32.9339 46.3439 46.7018 30.6695 60.4776 27.8078C74.0701 24.9839 87.9323 34.1468 90.9006 47.69C89.2796 46.6922 87.4204 46.0662 85.5819 45.9564C85.5626 45.8103 85.5147 45.6571 85.4221 45.4972C79.4671 35.2756 67.0971 30.5836 56.1273 35.5411C45.8675 40.1783 39.5574 53.0978 44.6236 63.7758L44.704 63.8846C43.4376 64.5499 42.2765 65.443 41.308 66.5575C40.4606 61.6975 34.1296 60.3889 29.7147 62.0284C29.2624 53.5042 29.0988 45.8056 32.8674 37.8675ZM109.352 50.0179C111.352 45.5846 108.897 40.007 103.95 38.576C102.969 38.292 102.023 38.1763 101.12 38.1984C101.097 38.1117 101.067 38.0234 101.024 37.933C92.3815 19.709 71.5037 10.5487 52.4206 17.2919C43.258 20.5294 35.6292 27.1612 31.1838 35.8136C27.2033 43.5616 25.0142 54.1963 28.2685 62.5833L28.3212 62.6695C25.9978 63.914 24.0658 65.8167 23.9247 68.6117C23.8491 70.1048 24.2751 71.587 25.1351 72.7429C21.0342 72.7978 16.469 74.7251 17.2552 79.6711C17.9222 83.8623 22.1734 84.3965 25.6496 83.3241C22.8146 87.9249 23.0249 95.577 28.8161 97.0614C34.0539 98.4052 41.1645 93.2798 41.1494 87.6425C43.3147 90.7661 48.1063 91.6426 51.1442 89.0456C53.5223 87.0126 54.164 83.1464 52.8425 80.3061C58.2919 80.446 62.3097 73.4685 59.8969 68.3076C58.4899 65.2996 56.0003 63.4992 53.203 62.7996C52.2274 56.6533 53.7358 50.4979 59.2074 46.8802C65.1608 42.9436 75.2414 43.9358 77.0899 51.9932C77.1079 52.0713 77.1342 52.1421 77.1633 52.2107C76.5016 55.7347 79.0901 58.8149 82.492 60.4892C78.318 61.8349 76.2322 67.4377 78.9226 71.3486C80.4031 73.501 82.9761 74.5693 85.5208 73.9399C87.0324 73.5661 88.7255 72.5301 89.4838 71.0817C92.0108 73.9565 96.402 74.9191 99.8535 73.0928C102.862 71.5012 104.685 67.814 104.255 64.4361C108.841 66.2243 114.248 63.6309 115.903 58.819C117.7 53.5992 113.903 50.4019 109.352 50.0179Z" fill="#FEB9CC"/>
</symbol><symbol id="rocket" viewBox="0 0 67 34">
<path d="M45.0396 4.36516C46.8997 5.83427 48.6518 7.41558 50.336 9.07854C48.4049 9.42242 46.4743 9.59636 44.4964 9.65079C44.1816 9.65876 43.9807 9.82604 43.8701 10.0405C41.8711 8.3078 39.7252 6.76899 37.4734 5.44592C39.9003 3.45302 41.9079 1.89162 45.0396 4.36516ZM45.8896 14.4405C45.9488 14.5036 46.0108 14.5514 46.0738 14.5912L46.0726 14.5945C45.4977 18.8286 44.9262 22.6192 41.27 25.1678H41.2659C33.2658 26.6655 25.0154 26.0919 17.8365 21.9607C15.8019 20.7903 13.893 19.4029 12.1014 17.8627C16.0172 13.6233 16.954 7.43816 15.4779 1.96465L15.4568 1.91021C26.5635 0.901814 37.8954 5.9073 45.8896 14.4405ZM49.7745 15.2816C49.0942 19.0782 48.2462 22.839 47.2395 26.5606C46.1708 25.9219 45.0988 25.2893 43.9951 24.715C46.4604 22.4825 47.2387 18.4203 47.5658 15.2086C48.302 15.2418 49.0381 15.265 49.7745 15.2816ZM51.3489 18.344C54.5513 17.1371 56.7077 21.1541 58.8899 23.228C57.8021 24.2517 56.6406 25.2674 55.1789 25.6537C53.1503 26.1895 51.3144 25.3138 49.7387 24.0731C49.6506 24.0034 49.5484 23.9848 49.453 23.9981C49.9299 22.0915 50.3537 20.1736 50.7318 18.2438C50.8787 18.3812 51.0914 18.4416 51.3489 18.344ZM61.4169 20.5686C62.3632 21.9501 63.2757 23.2233 64.5131 24.2457C62.2842 25.6949 60.5939 27.958 57.9228 28.6165C54.6061 29.4344 51.2797 28.1246 49.0245 25.6756C49.1173 25.3264 49.2027 24.9766 49.2925 24.6261C50.3642 26.4278 52.4189 27.3452 54.4876 27.2178C56.9186 27.0671 58.8451 25.349 60.5144 23.7252C60.8724 23.376 60.7495 22.8197 60.3655 22.5608C57.4058 20.5639 55.36 15.3122 50.9767 16.9831H50.9741L50.9952 16.8735L51.1379 16.8218C55.5089 14.7559 58.913 16.9134 61.4169 20.5686ZM2.09167 6.39258C5.76449 4.11555 9.65261 2.73407 13.5934 2.13128C13.5855 2.24082 13.5908 2.355 13.6244 2.47981C15.0506 7.72826 13.8285 12.4543 11.0716 16.9506C7.65818 13.8278 4.68398 10.1586 2.09167 6.39258ZM40.6221 27.0531C41.665 28.108 44.2212 30.0292 44.5357 31.4731C44.7742 32.5598 44.9709 32.0726 43.8174 32.2857C42.9035 32.4543 41.6188 32.2857 40.6884 32.2857C39.0418 32.2857 37.0919 32.5744 35.4736 32.2857C33.8565 31.9976 32.9813 31.4293 32.3241 29.8347C32.0623 29.1994 31.9635 28.4426 31.8014 27.7475C34.5898 27.8066 37.4587 27.4222 40.3888 26.5167C40.3842 26.6927 40.4513 26.8805 40.6221 27.0531ZM36.4297 4.8511C25.2862 -1.27696 11.755 -2.13267 0.432383 5.38352C0.0629943 5.62915 -0.149022 6.1662 0.123575 6.57315C7.26245 17.252 18.1551 26.9556 30.7855 27.7097C30.669 29.5572 30.7835 32.5008 32.5276 33.5291C33.649 34.1903 35.2993 33.9187 36.5166 33.9194C38.4287 33.9201 40.3407 33.9194 42.253 33.9194C43.6476 33.9194 46.6204 34.5461 46.6436 32.3043C46.6646 30.1779 43.2716 27.2536 41.7579 26.0242C42.2818 25.8529 42.7566 25.6205 43.19 25.3391C44.458 26.5061 45.8567 27.4594 47.329 28.3516C47.7444 28.6039 48.2855 28.3623 48.4172 27.9055C48.4898 27.6526 48.5531 27.3984 48.624 27.1461C50.4572 29.3899 53.1825 30.6367 56.1344 30.6134C60.75 30.5776 62.7392 26.86 66.578 25.0875C67.1778 24.81 67.1022 23.8839 66.578 23.5845C63.1849 21.65 62.194 17.3695 58.7865 15.419C56.4431 14.0781 53.764 14.021 51.3368 14.9643C51.3481 14.8939 51.3625 14.8249 51.3738 14.7545C51.452 14.2772 51.1801 13.8185 50.6601 13.8099C49.5664 13.7919 48.4733 13.7687 47.3796 13.7787C47.3822 13.5762 47.3185 13.3664 47.1412 13.1779C46.4874 12.4808 45.8087 11.811 45.1131 11.1604C47.5093 11.1611 49.8509 10.875 52.2007 10.3671C52.8124 10.235 52.9574 9.4264 52.5564 9.00751C50.7936 7.1653 48.9579 5.40477 46.9977 3.77699C45.8362 2.81307 44.4336 1.35059 42.9686 0.935677C40.5423 0.247921 37.9255 2.7646 36.4297 4.8511Z" fill="#FFD787"/>
<path d="M25.2834 8.11126C27.5578 9.2843 28.2616 12.0227 27.623 14.3721C27.3431 15.4024 26.6471 16.8456 25.529 17.228C24.2273 17.6728 22.4891 16.833 21.5568 15.9806C19.9039 14.469 19.676 12.1608 20.147 10.0823C21.1182 8.09069 23.1928 7.03382 25.2834 8.11126ZM18.5384 9.60826C18.4502 9.91297 18.5575 10.1865 18.7491 10.3823C15.9013 16.8968 26.5483 23.2625 29.144 15.5664C30.2845 12.1854 29.2281 8.08272 25.8518 6.48946C23.0184 5.15312 19.4384 6.5034 18.5384 9.60826Z" fill="#FFD787"/>
</symbol><symbol id="slider-next" viewBox="0 0 17 10">
<path d="M1 5H16M16 5L12 9M16 5L12 1" stroke="#122659" stroke-width="2" stroke-linecap="round" stroke-linejoin="round"/>
</symbol><symbol id="slider-previous" viewBox="0 0 17 10">
<path d="M16 5L1 5M1 5L5 1M1 5L5 9" stroke="#122659" stroke-width="2" stroke-linecap="round" stroke-linejoin="round"/>
</symbol><symbol id="star" viewBox="0 0 34 40">
<path d="M-4.25033 24.248C-0.441494 25.3024 3.34201 26.4554 7.12552 27.5963L7.15316 27.7055C8.55375 31.6152 10.1731 35.4603 11.6934 39.3259C11.9758 40.0442 12.9804 40.2931 13.4201 39.5497C14.6933 37.3984 16.0056 35.2706 17.2681 33.1133C18.1913 31.5355 19.4116 29.9084 19.7469 28.097C19.8229 28.1357 19.9066 28.1683 20.0048 28.1872C23.9572 28.9443 27.9302 29.2318 31.9516 28.9746C32.6838 28.9276 33.1112 28.2191 32.769 27.5652C30.8956 23.9818 28.713 20.6244 25.8497 17.7335C25.4544 17.3345 24.7369 17.8557 25.0554 18.3396C26.9487 21.2237 28.8082 24.1183 30.4213 27.1617C27.0906 27.2443 23.8067 26.9955 20.5144 26.3614C19.9073 26.2445 19.476 26.6496 19.3517 27.1101C19.2266 27.0873 19.0969 27.101 18.9902 27.1768C17.3456 28.3389 16.4845 30.3848 15.4945 32.0885C14.5705 33.6784 13.6718 35.2813 12.7662 36.8811C11.5284 33.6473 10.315 30.3977 8.96125 27.2132C8.85381 26.9606 8.67193 26.793 8.46318 26.6966C8.45551 26.3303 8.25597 25.9715 7.80088 25.8342C4.55765 24.8572 1.31211 23.8771 -1.91577 22.85C1.29984 20.1071 4.64668 17.5955 8.06258 15.0778C8.40256 14.8268 8.45168 14.4611 8.33272 14.1698C8.37493 14.072 8.40562 13.965 8.41099 13.8383C8.5476 10.0751 8.47546 6.29903 8.47393 2.53051C11.6688 4.73943 14.8529 6.93394 17.9956 9.22251C17.8675 9.88701 18.6242 10.6888 19.4568 10.2974C23.2411 8.5201 27.1229 7.14634 31.1681 6.17235C29.1796 9.78157 26.7998 13.1382 24.8819 16.7831C24.5926 17.333 25.2818 17.8739 25.7507 17.4453C29.327 14.1736 31.7767 9.52594 33.8841 5.24691C34.2709 4.4618 33.6369 3.62967 32.7651 3.80717C28.01 4.77737 23.4353 6.28994 19.0639 8.36459C15.8667 5.15058 12.0579 2.21647 8.03725 0.107681C7.45322 -0.198776 6.71187 0.17898 6.71034 0.860165C6.70266 5.18243 6.53919 9.5176 6.65661 13.8383C6.65968 13.9468 6.68962 14.0356 6.72109 14.1228C2.5316 16.29 -1.34784 19.2886 -4.70465 22.5496C-5.25952 23.089 -4.99015 24.0432 -4.25033 24.248Z" fill="#FEB9CC"/>
</symbol><symbol id="videoplayer-play" viewBox="0 0 51 51">
<circle cx="25.5" cy="25.5" r="25" stroke="#F4C752"/>
<circle cx="25.5" cy="25.5" r="21.5" fill="#F4C752"/>
<path d="M33 25.5L21 17V34L33 25.5Z" fill="#FDFAF5" stroke="#FDFAF5"/>
</symbol><symbol id="vkontakte" viewBox="0 0 14 8">
<path fill-rule="evenodd" clip-rule="evenodd" d="M6.84965 7.96651H7.68648C7.68648 7.96651 7.93926 7.93871 8.06831 7.79936C8.1871 7.67143 8.1833 7.43117 8.1833 7.43117C8.1833 7.43117 8.16695 6.30644 8.6881 6.14082C9.20183 5.97767 9.86152 7.22785 10.5608 7.70855C11.0895 8.07236 11.4913 7.99259 11.4913 7.99259L13.3609 7.96651C13.3609 7.96651 14.339 7.90616 13.8752 7.1359C13.8372 7.07289 13.6051 6.56611 12.4851 5.52477C11.3128 4.43487 11.4698 4.61116 12.882 2.72588C13.742 1.57774 14.0858 0.876778 13.9784 0.576558C13.876 0.290616 13.2434 0.366194 13.2434 0.366194L11.1383 0.37933C11.1383 0.37933 10.9823 0.358008 10.8666 0.427304C10.7535 0.495268 10.6807 0.65366 10.6807 0.65366C10.6807 0.65366 10.3475 1.54214 9.90315 2.29773C8.96577 3.89212 8.59098 3.97626 8.43779 3.87727C8.08143 3.64653 8.17037 2.95034 8.17037 2.45574C8.17037 0.910665 8.40434 0.266439 7.7148 0.0996707C7.48597 0.0442718 7.31758 0.00771992 6.73238 0.00181831C5.98127 -0.00598703 5.34552 0.00410255 4.98554 0.18077C4.74607 0.298231 4.56133 0.559995 4.67385 0.575035C4.81297 0.593692 5.12809 0.660132 5.29515 0.88801C5.51087 1.18195 5.50327 1.84217 5.50327 1.84217C5.50327 1.84217 5.62719 3.661 5.21381 3.88698C4.93005 4.04194 4.5408 3.72554 3.70511 2.27908C3.27691 1.53814 2.95362 0.719148 2.95362 0.719148C2.95362 0.719148 2.89128 0.566087 2.78009 0.484226C2.64515 0.385041 2.45661 0.35344 2.45661 0.35344L0.456232 0.366575C0.456232 0.366575 0.155938 0.374952 0.0457033 0.505739C-0.0523675 0.622058 0.0379107 0.862691 0.0379107 0.862691C0.0379107 0.862691 1.604 4.53273 3.37726 6.38221C5.00322 8.07788 6.84965 7.96651 6.84965 7.96651Z" fill="#122659"/>
</symbol></svg>