<svg width="135" height="141" viewBox="0 0 135 141" fill="none" xmlns="http://www.w3.org/2000/svg">
<path d="M103.674 116.035C102.371 116.768 100.996 117.326 99.5661 117.753L99.4968 117.611C99.4152 117.499 99.3189 117.397 99.2341 117.288C99.9442 116.167 100.586 114.999 101.518 114.037C102.552 112.971 104.5 111.625 106.061 112.337C108.371 113.392 104.606 115.511 103.674 116.035ZM56.126 107.646C60.6068 95.9821 64.572 82.8058 64.3992 70.2244C67.2405 70.4854 70.0471 70.3081 72.6163 69.5816C74.2239 69.1277 75.7515 68.4479 77.1822 67.5987L77.2322 67.7143C83.6395 79.1813 91.703 89.2098 101.048 98.3812C90.111 111.848 71.4992 115.694 56.126 107.646ZM59.2148 67.0786C51.728 64.7768 45.4885 59.4252 43.6321 52.4635C57.6421 54.4926 73.504 49.3 81.3424 37.0919C85.1585 41.9811 86.9455 48.2084 85.0107 54.7636C81.6044 66.3031 70.0295 70.403 59.2148 67.0786ZM43.9789 42.5044C44.8613 39.7485 46.325 37.4798 48.179 35.6269C46.5417 39.9408 47.3727 45.3865 50.8464 48.473C51.5176 49.0699 52.4275 48.2416 51.8728 47.5251C48.521 43.1919 48.0048 38.2693 50.6856 33.5262C52.171 32.4821 53.8055 31.6232 55.5368 30.9363C56.3276 36.0705 58.566 41.7708 62.0755 45.4503C62.6152 46.0155 63.5947 45.3559 63.205 44.6479C61.8997 42.2714 60.3513 40.0847 59.2319 37.597C58.1901 35.2797 57.5074 32.8845 56.8776 30.4454C58.5274 29.8852 60.2445 29.4674 61.9807 29.1736C64.2197 30.1607 66.1179 31.3368 67.8299 33.2299C69.4222 34.9912 70.5011 37.0833 71.9107 38.9688C72.2628 39.4399 73.1548 38.9798 72.9445 38.4183C71.5576 34.7338 68.3807 30.5955 64.4989 28.8447C66.5513 28.6365 68.5995 28.5821 70.5656 28.6758C70.6898 28.9109 70.8892 29.1176 71.1836 29.2487C74.5701 30.7563 77.6593 32.9557 80.1168 35.645C71.974 48.8905 57.5407 50.71 43.383 51.3811C42.842 48.6238 42.9752 45.6388 43.9789 42.5044ZM45.161 35.8228C44.3648 36.8471 43.6953 37.9546 43.1258 39.1082C42.7893 38.8664 42.4786 38.5958 42.244 38.1881C41.7735 37.3714 41.619 36.3504 42.1009 35.5009C42.895 34.1014 44.8762 33.868 46.1409 34.6781C45.7955 35.0517 45.465 35.4323 45.161 35.8228ZM24.5114 42.2756C28.0419 41.0733 30.8352 38.4516 32.1168 34.7859C33.0731 32.0508 32.6776 29.2454 35.702 27.3913C37.0004 26.5951 38.7872 26.3606 40.2636 26.4982C44.1296 26.8574 46.6375 29.3872 48.4141 32.5866C47.9937 32.9243 47.5852 33.2683 47.2001 33.6262C47.1535 33.564 47.1084 33.5005 47.0374 33.4471C44.9531 31.9039 41.6483 32.6035 40.5637 35.0413C39.8395 36.6704 40.6108 39.5932 42.3217 40.49C37.2342 44.8745 30.3887 45.269 24.5114 42.2756ZM73.1083 27.4364C72.7042 27.2665 72.2964 27.1059 71.8829 26.9615C71.3648 26.7816 70.9612 26.9342 70.7075 27.2304C70.0147 27.028 69.2948 26.8859 68.5628 26.7718C68.7196 26.722 68.8576 26.6065 68.9232 26.3909C69.3105 25.1121 70.6949 23.792 72.1416 24.4315C73.3243 24.9551 73.5596 26.3615 73.1083 27.4364ZM78.258 16.9725C79.2481 17.174 80.1921 17.4738 81.1176 17.7688C82.7586 18.2902 84.3412 18.7946 86.02 18.7002C83.8143 22.8771 81.6086 28.0038 76.401 28.3051C76.0642 28.3247 75.8241 28.4973 75.6794 28.7256C75.3453 28.5326 75.0138 28.3344 74.6712 28.1585C75.6507 26.3049 74.7284 23.6418 72.7724 22.8398C70.5663 21.9356 67.5888 23.6884 67.7543 26.1998C67.7692 26.4212 67.8907 26.5895 68.0485 26.6926C67.588 26.6341 67.1203 26.5973 66.6496 26.5709C66.0211 19.9443 71.7975 15.659 78.258 16.9725ZM71.06 124.501C71.0384 124.759 71.0142 125.017 70.9934 125.276C70.901 125.27 70.8077 125.276 70.7137 125.311C69.2117 125.882 67.7223 126.446 66.1212 126.669C64.8083 126.851 61.8376 127.097 60.8141 126.087C59.9639 125.246 61.5575 124.949 62.2883 124.772C63.0985 124.575 63.9046 124.446 64.7336 124.37C66.6062 124.2 68.447 124.328 70.2896 124.693C70.6004 124.755 70.8608 124.662 71.06 124.501ZM38.658 67.8358C38.344 67.7741 38.0287 67.9477 37.8407 68.2125C36.456 67.9786 34.7924 67.9491 33.9755 66.6502C33.2871 65.5569 33.6374 63.8641 34.7421 63.1699C35.8434 62.4772 37.5162 62.8532 38.3177 63.8345C39.1724 64.8818 39.2375 66.6296 38.658 67.8358ZM99.9258 48.4321C99.8322 47.1641 100.611 45.9409 101.917 45.7746C103.278 45.6025 104.739 46.579 104.976 47.9533C105.202 49.2644 104.502 50.5014 103.436 51.1973C101.956 50.7756 100.059 50.248 99.9258 48.4321ZM108.246 111.481C106.819 109.996 104.395 110.248 102.692 111.051C100.637 112.019 99.1509 113.943 98.0597 115.922C97.1487 114.946 96.1773 114.011 95.3151 113.017C94.1664 111.693 93.0985 110.273 91.8922 108.997C96.2554 106.512 100.204 103.128 103.463 98.8925C103.735 98.5377 103.679 97.8512 103.342 97.5476C95.9409 90.8886 89.5261 83.1649 84.0785 74.8267C93.6877 72.189 102.827 62.7854 104.365 52.8546C106.221 51.7495 107.352 49.5045 106.862 47.3481C106.334 45.025 103.913 43.4524 101.578 43.7576C99.3218 44.0519 97.8031 46.1512 97.8927 48.3763C98 51.0447 100.26 52.0573 102.537 52.4388L102.563 52.5273L102.551 52.5458C100.534 57.4713 98.6788 61.8523 94.9093 65.7535C91.5674 69.2111 87.5152 71.4821 83.1973 73.4568C81.7863 71.2374 80.4401 68.9796 79.1644 66.6859C79.1037 66.5757 79.0303 66.4898 78.952 66.4153C83.7376 62.8633 87.0801 57.264 87.7428 51.3707C88.6735 43.0943 84.3115 34.7409 77.5826 29.9383C83.4723 28.8213 85.6732 22.5754 88.6045 17.8806C89.1358 17.0291 88.2013 16.2394 87.3837 16.5603C85.3102 17.3749 83.1082 16.5842 80.947 15.8069C79.7368 15.3709 78.5392 14.9397 77.3846 14.7958C74.7334 14.4661 71.9291 14.8961 69.604 16.2578C66.0452 18.3411 63.9915 22.6177 65.1937 26.5415C59.7212 26.6032 53.8138 28.6481 49.3903 31.8402C48.1995 26.9411 42.4406 23.9051 37.6266 24.7878C34.7864 25.308 32.6142 26.953 31.5679 29.6442C30.6641 31.9701 30.6476 34.3941 29.2307 36.5494C27.5193 39.1521 24.9131 40.5624 21.9085 41.0598C21.1172 41.1907 21.0053 42.3093 21.63 42.7103C27.6196 46.5523 35.7929 47.2135 41.6461 43.1669C40.2226 48.8592 41.2032 55.146 44.7524 59.9167C48.7183 65.2486 55.8375 69.0314 62.9522 70.0632C62.5451 72.0918 62.1968 74.1281 61.8604 76.1672C57.6996 76.3205 53.7724 76.2632 49.7431 74.8814C45.7926 73.527 42.9734 71.1531 39.8359 68.6639C41.2362 66.819 41.4771 64.4258 40.0176 62.5088C38.582 60.6231 35.765 60.0344 33.6954 61.1982C31.7872 62.2707 30.9583 64.8081 31.8065 66.8151C32.7989 69.1627 35.704 69.8581 38.0371 69.464C42.5683 76.5243 53.4755 80.1341 61.5457 78.0818C60.9522 81.7223 60.3585 85.3635 59.5163 88.9674C58.013 95.4008 56.0145 101.683 53.6442 107.847C53.4776 108.28 53.709 108.903 54.1172 109.127C59.9064 112.311 66.1478 113.904 72.3239 114.005C71.7979 117.023 71.4555 120.067 71.1798 123.117C71.0855 123.045 70.9678 122.987 70.8204 122.957C68.5556 122.479 56.6052 121.32 58.354 126.434C59.0231 128.392 61.7126 128.775 63.4667 128.861C66.2627 128.999 69.1934 128.186 71.3302 126.351C71.9205 126.793 73.0387 126.547 73.118 125.562C73.4299 121.715 73.6848 117.859 73.6301 113.999C79.4988 113.896 85.27 112.439 90.5097 109.735C91.3895 111.417 92.6101 112.957 93.8111 114.407C95.1574 116.031 96.5576 117.832 98.2792 119.069C98.6063 119.305 98.9189 119.29 99.1689 119.151C99.3187 119.26 99.5169 119.312 99.7579 119.261C102.133 118.749 111.972 115.363 108.246 111.481Z" fill="#FEB9CC"/>
<path d="M57.9167 58.0076C57.8363 56.5593 56.1754 55.5802 54.8575 56.2264C54.1929 56.552 53.7406 57.33 53.9588 58.0498C53.8848 58.2295 53.8201 58.4171 53.7667 58.6168C53.5809 59.31 53.9534 59.8499 54.5694 60.1282C56.0043 60.7769 58.0079 59.6615 57.9167 58.0076Z" fill="#FEB9CC"/>
<path d="M80.4038 48.1258C79.7557 46.9634 77.8378 46.2862 76.836 47.4216C76.7239 47.5485 76.643 47.6918 76.5813 47.84C76.3679 48.0885 76.2013 48.3804 76.1057 48.6975C75.6292 50.2703 77.0935 51.5348 78.5853 51.3669C80.1375 51.1918 81.2097 49.5713 80.4038 48.1258Z" fill="#FEB9CC"/>
<path d="M70.6208 58.7657C70.7267 58.3712 70.8184 58.0256 70.5419 57.6779C70.3877 57.4833 70.1865 57.3172 69.9716 57.1941C69.0436 56.6593 67.8475 56.9124 67.2816 57.8246C67.0233 58.2418 67.5085 58.8487 67.9625 58.5607C68.2913 58.3518 68.7403 58.3176 69.0904 58.4821C68.9002 59.1062 68.6904 59.7586 68.6767 60.3879C68.6619 61.0545 69.6314 61.4143 69.9775 60.7856C70.3157 60.1707 70.4395 59.4388 70.6208 58.7657Z" fill="#FEB9CC"/>
<path d="M72.6841 61.2214C71.7116 63.1483 69.4483 64.3463 67.4021 63.1567C66.9376 62.887 66.5524 63.5286 66.9619 63.8501C69.1847 65.5925 73.1419 64.6852 73.9409 61.8002C74.1423 61.0749 73.053 60.4907 72.6841 61.2214Z" fill="#FEB9CC"/>
</svg>
