<svg width="111" height="17" viewBox="0 0 111 17" fill="none" xmlns="http://www.w3.org/2000/svg">
<path d="M6.05685 13.6C4.16794 13.6 2.70334 13.153 1.66307 12.2589C0.636483 11.3648 0.0889707 10.1056 0.0205317 8.48111C0.00684389 8.14111 0 7.58704 0 6.81889C0 6.03815 0.00684389 5.47148 0.0205317 5.11889C0.0889707 3.50704 0.643327 2.25407 1.6836 1.36C2.73756 0.453333 4.19531 0 6.05685 0C7.27507 0 8.33587 0.195185 9.23927 0.585556C10.1427 0.963333 10.8407 1.48593 11.3335 2.15333C11.8263 2.80815 12.0863 3.55111 12.1137 4.38222V4.42C12.1137 4.52074 12.0658 4.60889 11.97 4.68444C11.8879 4.74741 11.792 4.77889 11.6825 4.77889H9.73203C9.56777 4.77889 9.44458 4.74741 9.36246 4.68444C9.28033 4.62148 9.21189 4.50185 9.15714 4.32556C8.93814 3.53222 8.57541 2.97815 8.06896 2.66333C7.56251 2.33593 6.88496 2.17222 6.03632 2.17222C4.06528 2.17222 3.03869 3.18593 2.95657 5.21333C2.94288 5.55333 2.93603 6.07593 2.93603 6.78111C2.93603 7.4863 2.94288 8.02148 2.95657 8.38667C3.03869 10.4141 4.06528 11.4278 6.03632 11.4278C6.88496 11.4278 7.56251 11.2641 8.06896 10.9367C8.5891 10.6093 8.95182 10.0552 9.15714 9.27444C9.1982 9.09815 9.2598 8.97852 9.34193 8.91556C9.43774 8.85259 9.56777 8.82111 9.73203 8.82111H11.6825C11.8057 8.82111 11.9084 8.85889 11.9905 8.93444C12.0863 9.01 12.1274 9.10444 12.1137 9.21778C12.0863 10.0489 11.8263 10.7981 11.3335 11.4656C10.8407 12.1204 10.1427 12.643 9.23927 13.0333C8.33587 13.4111 7.27507 13.6 6.05685 13.6Z" fill="#122659"/>
<path d="M14.8155 13.4111C14.6787 13.4111 14.5623 13.367 14.4665 13.2789C14.3707 13.1907 14.3228 13.0837 14.3228 12.9578V0.453333C14.3228 0.314815 14.3707 0.207778 14.4665 0.132223C14.5623 0.0440743 14.6787 0 14.8155 0H16.5197C16.6702 0 16.7866 0.0440743 16.8687 0.132223C16.9645 0.207778 17.0124 0.314815 17.0124 0.453333V12.9578C17.0124 13.0837 16.9645 13.1907 16.8687 13.2789C16.7866 13.367 16.6702 13.4111 16.5197 13.4111H14.8155Z" fill="#122659"/>
<path d="M24.335 13.6C22.8157 13.6 21.6043 13.197 20.7009 12.3911C19.8112 11.5726 19.339 10.4267 19.2842 8.95333L19.2637 8.48111L19.2842 8.00889C19.3527 6.57333 19.8318 5.4463 20.7215 4.62778C21.6249 3.80926 22.8294 3.4 24.335 3.4C25.9502 3.4 27.1958 3.85333 28.0718 4.76C28.9615 5.66667 29.4064 6.87556 29.4064 8.38667V8.78333C29.4064 8.90926 29.3585 9.0163 29.2627 9.10444C29.1668 9.19259 29.0436 9.23667 28.8931 9.23667H22.0766V9.38778C22.1039 10.0804 22.3092 10.6659 22.6925 11.1444C23.0895 11.6104 23.6301 11.8433 24.3145 11.8433C25.1221 11.8433 25.7723 11.5537 26.265 10.9744C26.3882 10.8359 26.484 10.7478 26.5525 10.71C26.6346 10.6722 26.7509 10.6533 26.9015 10.6533H28.6672C28.7904 10.6533 28.8931 10.6911 28.9752 10.7667C29.071 10.8296 29.1189 10.9115 29.1189 11.0122C29.1189 11.3144 28.9205 11.6733 28.5235 12.0889C28.1403 12.4919 27.5859 12.8444 26.8604 13.1467C26.135 13.4489 25.2932 13.6 24.335 13.6ZM26.6141 7.65V7.59333C26.6141 6.85037 26.4087 6.25222 25.9981 5.79889C25.6012 5.34556 25.0468 5.11889 24.335 5.11889C23.6233 5.11889 23.0689 5.34556 22.672 5.79889C22.275 6.25222 22.0766 6.85037 22.0766 7.59333V7.65H26.6141Z" fill="#122659"/>
<path d="M34.9827 13.4111C34.7773 13.4111 34.6199 13.3733 34.5104 13.2978C34.4009 13.2096 34.312 13.09 34.2435 12.9389L30.4041 4.17444L30.363 4.00444C30.363 3.89111 30.4041 3.79667 30.4862 3.72111C30.582 3.63296 30.6915 3.58889 30.8147 3.58889H32.4778C32.7379 3.58889 32.9158 3.70852 33.0116 3.94778L35.7423 10.5778L38.473 3.94778C38.5141 3.85963 38.5757 3.77778 38.6578 3.70222C38.7536 3.62667 38.87 3.58889 39.0069 3.58889H40.6905C40.8 3.58889 40.8958 3.63296 40.9779 3.72111C41.0737 3.79667 41.1216 3.89111 41.1216 4.00444C41.1216 4.08 41.1148 4.13667 41.1011 4.17444L37.2411 12.9389C37.1727 13.09 37.0837 13.2096 36.9742 13.2978C36.8647 13.3733 36.7073 13.4111 36.502 13.4111H34.9827Z" fill="#122659"/>
<path d="M47.2127 13.6C45.6933 13.6 44.4819 13.197 43.5785 12.3911C42.6888 11.5726 42.2166 10.4267 42.1619 8.95333L42.1413 8.48111L42.1619 8.00889C42.2303 6.57333 42.7094 5.4463 43.5991 4.62778C44.5025 3.80926 45.707 3.4 47.2127 3.4C48.8278 3.4 50.0734 3.85333 50.9494 4.76C51.8391 5.66667 52.284 6.87556 52.284 8.38667V8.78333C52.284 8.90926 52.2361 9.0163 52.1403 9.10444C52.0444 9.19259 51.9213 9.23667 51.7707 9.23667H44.9542V9.38778C44.9815 10.0804 45.1869 10.6659 45.5701 11.1444C45.9671 11.6104 46.5077 11.8433 47.1921 11.8433C47.9997 11.8433 48.6499 11.5537 49.1426 10.9744C49.2658 10.8359 49.3616 10.7478 49.4301 10.71C49.5122 10.6722 49.6286 10.6533 49.7791 10.6533H51.5448C51.668 10.6533 51.7707 10.6911 51.8528 10.7667C51.9486 10.8296 51.9965 10.9115 51.9965 11.0122C51.9965 11.3144 51.7981 11.6733 51.4011 12.0889C51.0179 12.4919 50.4635 12.8444 49.7381 13.1467C49.0126 13.4489 48.1708 13.6 47.2127 13.6ZM49.4917 7.65V7.59333C49.4917 6.85037 49.2864 6.25222 48.8757 5.79889C48.4788 5.34556 47.9244 5.11889 47.2127 5.11889C46.5009 5.11889 45.9465 5.34556 45.5496 5.79889C45.1526 6.25222 44.9542 6.85037 44.9542 7.59333V7.65H49.4917Z" fill="#122659"/>
<path d="M54.9562 13.4111C54.8193 13.4111 54.7029 13.367 54.6071 13.2789C54.5113 13.1907 54.4634 13.0837 54.4634 12.9578V4.06111C54.4634 3.93519 54.5113 3.82815 54.6071 3.74C54.7029 3.63926 54.8193 3.58889 54.9562 3.58889H56.6192C56.7698 3.58889 56.893 3.63296 56.9888 3.72111C57.0846 3.80926 57.1325 3.92259 57.1325 4.06111V4.83556C57.461 4.43259 57.8717 4.12407 58.3644 3.91C58.8709 3.69593 59.4458 3.58889 60.0891 3.58889H60.9309C61.0814 3.58889 61.1978 3.63296 61.2799 3.72111C61.3757 3.79667 61.4236 3.9037 61.4236 4.04222V5.40222C61.4236 5.52815 61.3757 5.63518 61.2799 5.72333C61.1978 5.81148 61.0814 5.85556 60.9309 5.85556H59.3294C58.6861 5.85556 58.1796 6.02556 57.8101 6.36556C57.4405 6.70556 57.2557 7.17148 57.2557 7.76333V12.9578C57.2557 13.0837 57.2078 13.1907 57.112 13.2789C57.0162 13.367 56.893 13.4111 56.7424 13.4111H54.9562Z" fill="#122659"/>
<path d="M63.7641 13.4111C63.6272 13.4111 63.5109 13.367 63.4151 13.2789C63.3192 13.1907 63.2713 13.0837 63.2713 12.9578V0.661112C63.2713 0.522593 63.3124 0.409259 63.3945 0.321111C63.4903 0.232963 63.6135 0.188889 63.7641 0.188889H69.7183C71.3198 0.188889 72.5106 0.516296 73.2908 1.17111C74.0847 1.81333 74.4816 2.69482 74.4816 3.81556C74.4816 4.47037 74.3037 5.03074 73.9478 5.49667C73.6056 5.95 73.2018 6.27741 72.7365 6.47889C73.3113 6.71815 73.7904 7.10852 74.1737 7.65C74.5706 8.19148 74.7691 8.80852 74.7691 9.50111C74.7691 10.6722 74.3379 11.6167 73.4756 12.3344C72.6269 13.0522 71.4293 13.4111 69.8825 13.4111H63.7641ZM69.3487 5.61C70.0605 5.61 70.6012 5.45259 70.9707 5.13778C71.3403 4.82296 71.5251 4.40111 71.5251 3.87222C71.5251 3.33074 71.3403 2.91518 70.9707 2.62556C70.6012 2.32333 70.0605 2.17222 69.3487 2.17222H66.1252V5.61H69.3487ZM69.554 11.4089C70.2658 11.4089 70.8202 11.2326 71.2171 10.88C71.614 10.5148 71.8125 10.0552 71.8125 9.50111C71.8125 8.93444 71.614 8.47481 71.2171 8.12222C70.8202 7.75704 70.2658 7.57444 69.554 7.57444H66.1252V11.4089H69.554Z" fill="#122659"/>
<path d="M80.2007 13.6C79.5026 13.6 78.8593 13.4741 78.2707 13.2222C77.6958 12.9578 77.2373 12.6052 76.8951 12.1644C76.5666 11.7237 76.4023 11.2389 76.4023 10.71C76.4023 9.8537 76.7787 9.16111 77.5316 8.63222C78.2844 8.10333 79.3178 7.74444 80.6319 7.55556L83.4447 7.17778V6.78111C83.4447 6.22704 83.2941 5.81148 82.993 5.53444C82.6919 5.25741 82.2059 5.11889 81.5352 5.11889C81.0835 5.11889 80.714 5.20074 80.4265 5.36444C80.1528 5.51556 79.9338 5.66667 79.7695 5.81778C79.6053 5.98148 79.4958 6.08852 79.441 6.13889C79.3863 6.29 79.2836 6.36556 79.133 6.36556H77.5521C77.4289 6.36556 77.3194 6.32778 77.2236 6.25222C77.1415 6.17667 77.1004 6.07593 77.1004 5.95C77.1141 5.63519 77.2783 5.2763 77.5932 4.87333C77.9217 4.47037 78.4213 4.12407 79.092 3.83444C79.7627 3.54481 80.5839 3.4 81.5558 3.4C83.1709 3.4 84.3481 3.7337 85.0872 4.40111C85.8264 5.06852 86.1959 5.9437 86.1959 7.02667V12.9578C86.1959 13.0837 86.148 13.1907 86.0522 13.2789C85.9701 13.367 85.8538 13.4111 85.7032 13.4111H84.0401C83.9032 13.4111 83.7869 13.367 83.6911 13.2789C83.5953 13.1907 83.5474 13.0837 83.5474 12.9578V12.2211C83.2462 12.6241 82.8151 12.9578 82.2539 13.2222C81.7063 13.4741 81.022 13.6 80.2007 13.6ZM80.8988 11.8056C81.6516 11.8056 82.2675 11.5789 82.7466 11.1256C83.2257 10.6722 83.4652 10.0111 83.4652 9.14222V8.74556L81.4121 9.04778C80.6182 9.16111 80.0159 9.3437 79.6053 9.59556C79.2083 9.84741 79.0098 10.1559 79.0098 10.5211C79.0098 10.9241 79.1946 11.2389 79.5642 11.4656C79.9338 11.6922 80.3786 11.8056 80.8988 11.8056Z" fill="#122659"/>
<path d="M94.7431 13.6C93.3332 13.6 92.2382 13.153 91.458 12.2589V12.9578C91.458 13.0837 91.4101 13.1907 91.3143 13.2789C91.2321 13.367 91.1158 13.4111 90.9652 13.4111H89.3432C89.2064 13.4111 89.09 13.367 88.9942 13.2789C88.8984 13.1907 88.8505 13.0837 88.8505 12.9578V0.453333C88.8505 0.314815 88.8984 0.207778 88.9942 0.132223C89.09 0.0440743 89.2064 0 89.3432 0H91.0884C91.239 0 91.3553 0.0440743 91.4375 0.132223C91.5333 0.207778 91.5812 0.314815 91.5812 0.453333V4.64667C92.3614 3.81556 93.4154 3.4 94.7431 3.4C96.1255 3.4 97.1863 3.81556 97.9255 4.64667C98.6646 5.47778 99.0616 6.55444 99.1163 7.87667C99.13 8.02778 99.1368 8.22926 99.1368 8.48111C99.1368 8.74556 99.13 8.95333 99.1163 9.10444C99.0616 10.4644 98.6646 11.5537 97.9255 12.3722C97.1863 13.1907 96.1255 13.6 94.7431 13.6ZM93.9834 11.5789C95.4617 11.5789 96.2487 10.7415 96.3445 9.06667C96.3582 8.94074 96.3651 8.75185 96.3651 8.5C96.3651 8.24815 96.3582 8.05926 96.3445 7.93333C96.2487 6.25852 95.4617 5.42111 93.9834 5.42111C93.2169 5.42111 92.6283 5.64778 92.2177 6.10111C91.8207 6.54185 91.6086 7.07704 91.5812 7.70667L91.5607 8.42444L91.5812 9.16111C91.6222 9.84111 91.8344 10.4141 92.2177 10.88C92.6009 11.3459 93.1895 11.5789 93.9834 11.5789Z" fill="#122659"/>
<path d="M102.911 17C102.801 17 102.705 16.9622 102.623 16.8867C102.541 16.8111 102.5 16.723 102.5 16.6222C102.5 16.5089 102.527 16.4081 102.582 16.32L104.183 12.8256L100.241 4.26889C100.187 4.15556 100.159 4.06741 100.159 4.00444C100.173 3.89111 100.221 3.79667 100.303 3.72111C100.385 3.63296 100.488 3.58889 100.611 3.58889H102.274C102.534 3.58889 102.719 3.70852 102.828 3.94778L105.559 10.1244L108.372 3.94778C108.481 3.70852 108.666 3.58889 108.926 3.58889H110.569C110.678 3.58889 110.774 3.62667 110.856 3.70222C110.952 3.77778 111 3.86593 111 3.96667C111 4.05481 110.973 4.15556 110.918 4.26889L105.107 16.6411C104.984 16.8804 104.793 17 104.533 17H102.911Z" fill="#122659"/>
</svg>
