<svg width="34" height="40" viewBox="0 0 34 40" fill="none" xmlns="http://www.w3.org/2000/svg">
<path d="M-4.25033 24.248C-0.441494 25.3024 3.34201 26.4554 7.12552 27.5963L7.15316 27.7055C8.55375 31.6152 10.1731 35.4603 11.6934 39.3259C11.9758 40.0442 12.9804 40.2931 13.4201 39.5497C14.6933 37.3984 16.0056 35.2706 17.2681 33.1133C18.1913 31.5355 19.4116 29.9084 19.7469 28.097C19.8229 28.1357 19.9066 28.1683 20.0048 28.1872C23.9572 28.9443 27.9302 29.2318 31.9516 28.9746C32.6838 28.9276 33.1112 28.2191 32.769 27.5652C30.8956 23.9818 28.713 20.6244 25.8497 17.7335C25.4544 17.3345 24.7369 17.8557 25.0554 18.3396C26.9487 21.2237 28.8082 24.1183 30.4213 27.1617C27.0906 27.2443 23.8067 26.9955 20.5144 26.3614C19.9073 26.2445 19.476 26.6496 19.3517 27.1101C19.2266 27.0873 19.0969 27.101 18.9902 27.1768C17.3456 28.3389 16.4845 30.3848 15.4945 32.0885C14.5705 33.6784 13.6718 35.2813 12.7662 36.8811C11.5284 33.6473 10.315 30.3977 8.96125 27.2132C8.85381 26.9606 8.67193 26.793 8.46318 26.6966C8.45551 26.3303 8.25597 25.9715 7.80088 25.8342C4.55765 24.8572 1.31211 23.8771 -1.91577 22.85C1.29984 20.1071 4.64668 17.5955 8.06258 15.0778C8.40256 14.8268 8.45168 14.4611 8.33272 14.1698C8.37493 14.072 8.40562 13.965 8.41099 13.8383C8.5476 10.0751 8.47546 6.29903 8.47393 2.53051C11.6688 4.73943 14.8529 6.93394 17.9956 9.22251C17.8675 9.88701 18.6242 10.6888 19.4568 10.2974C23.2411 8.5201 27.1229 7.14634 31.1681 6.17235C29.1796 9.78157 26.7998 13.1382 24.8819 16.7831C24.5926 17.333 25.2818 17.8739 25.7507 17.4453C29.327 14.1736 31.7767 9.52594 33.8841 5.24691C34.2709 4.4618 33.6369 3.62967 32.7651 3.80717C28.01 4.77737 23.4353 6.28994 19.0639 8.36459C15.8667 5.15058 12.0579 2.21647 8.03725 0.107681C7.45322 -0.198776 6.71187 0.17898 6.71034 0.860165C6.70266 5.18243 6.53919 9.5176 6.65661 13.8383C6.65968 13.9468 6.68962 14.0356 6.72109 14.1228C2.5316 16.29 -1.34784 19.2886 -4.70465 22.5496C-5.25952 23.089 -4.99015 24.0432 -4.25033 24.248Z" fill="#FEB9CC"/>
</svg>
